<svg width="40" height="11" viewBox="0 0 40 11" fill="none" xmlns="http://www.w3.org/2000/svg">
<path d="M5.39364 0.291326V10.4731H3.24094V2.33465H3.18129L0.849609 3.7963V1.88721L3.37021 0.291326H5.39364ZM8.5245 10.6024C8.19638 10.6024 7.91465 10.4864 7.67933 10.2544C7.44732 10.0191 7.33132 9.73735 7.33132 9.40922C7.33132 9.08441 7.44732 8.806 7.67933 8.574C7.91465 8.34199 8.19638 8.22599 8.5245 8.22599C8.84268 8.22599 9.12109 8.34199 9.35973 8.574C9.59837 8.806 9.71768 9.08441 9.71768 9.40922C9.71768 9.62797 9.66134 9.82849 9.54865 10.0108C9.43928 10.1898 9.2951 10.3339 9.11612 10.4433C8.93714 10.5494 8.73994 10.6024 8.5245 10.6024ZM15.0186 10.6969C14.1635 10.6936 13.4277 10.4831 12.8113 10.0655C12.1981 9.64786 11.7258 9.04298 11.3944 8.25084C11.0662 7.4587 10.9038 6.50581 10.9071 5.39218C10.9071 4.28186 11.0712 3.3356 11.3993 2.5534C11.7308 1.7712 12.2031 1.17627 12.8162 0.768599C13.4327 0.357614 14.1668 0.152121 15.0186 0.152121C15.8704 0.152121 16.6029 0.357614 17.2161 0.768599C17.8326 1.17958 18.3065 1.77617 18.638 2.55837C18.9694 3.33725 19.1335 4.28186 19.1301 5.39218C19.1301 6.50913 18.9644 7.46367 18.633 8.25581C18.3049 9.04796 17.8342 9.65283 17.2211 10.0704C16.6079 10.4881 15.8738 10.6969 15.0186 10.6969ZM15.0186 8.91206C15.602 8.91206 16.0676 8.61874 16.4157 8.03209C16.7637 7.44545 16.936 6.56547 16.9327 5.39218C16.9327 4.61992 16.8532 3.97693 16.6941 3.4632C16.5383 2.94947 16.3162 2.56334 16.0279 2.30482C15.7428 2.0463 15.4064 1.91704 15.0186 1.91704C14.4386 1.91704 13.9746 2.20705 13.6266 2.78706C13.2786 3.36708 13.1029 4.23545 13.0996 5.39218C13.0996 6.17438 13.1775 6.82731 13.3333 7.35099C13.4924 7.87135 13.7161 8.26244 14.0044 8.52428C14.2928 8.7828 14.6309 8.91206 15.0186 8.91206ZM24.6573 10.6969C23.8022 10.6936 23.0664 10.4831 22.4499 10.0655C21.8368 9.64786 21.3645 9.04298 21.033 8.25084C20.7049 7.4587 20.5425 6.50581 20.5458 5.39218C20.5458 4.28186 20.7099 3.3356 21.038 2.5534C21.3694 1.7712 21.8417 1.17627 22.4549 0.768599C23.0714 0.357614 23.8055 0.152121 24.6573 0.152121C25.5091 0.152121 26.2416 0.357614 26.8548 0.768599C27.4712 1.17958 27.9452 1.77617 28.2766 2.55837C28.6081 3.33725 28.7721 4.28186 28.7688 5.39218C28.7688 6.50913 28.6031 7.46367 28.2717 8.25581C27.9435 9.04796 27.4729 9.65283 26.8597 10.0704C26.2466 10.4881 25.5124 10.6969 24.6573 10.6969ZM24.6573 8.91206C25.2406 8.91206 25.7063 8.61874 26.0543 8.03209C26.4023 7.44545 26.5747 6.56547 26.5714 5.39218C26.5714 4.61992 26.4918 3.97693 26.3327 3.4632C26.177 2.94947 25.9549 2.56334 25.6665 2.30482C25.3815 2.0463 25.0451 1.91704 24.6573 1.91704C24.0773 1.91704 23.6133 2.20705 23.2653 2.78706C22.9173 3.36708 22.7416 4.23545 22.7383 5.39218C22.7383 6.17438 22.8162 6.82731 22.9719 7.35099C23.131 7.87135 23.3548 8.26244 23.6431 8.52428C23.9315 8.7828 24.2695 8.91206 24.6573 8.91206ZM32.3819 0.291326L34.4352 3.7615H34.5147L36.5779 0.291326H39.0091L35.9018 5.38224L39.0787 10.4731H36.6028L34.5147 6.998H34.4352L32.3471 10.4731H29.8812L33.068 5.38224L29.9409 0.291326H32.3819Z" fill="url(#paint0_linear_32_323)"/>
<defs>
<linearGradient id="paint0_linear_32_323" x1="4.73587" y1="-3.52685" x2="66.3674" y2="12.33" gradientUnits="userSpaceOnUse">
<stop stop-color="#18C8AA"/>
<stop offset="1" stop-color="#4F46E7"/>
</linearGradient>
</defs>
</svg>
