<svg width="161" height="34" viewBox="0 0 161 34" fill="none" xmlns="http://www.w3.org/2000/svg">
<rect x="0.882812" y="0.712524" width="33.2358" height="33.2358" rx="12" fill="white" fill-opacity="0.06"/>
<path d="M15.4007 24.3304H19.6007C23.1007 24.3304 24.5007 22.9304 24.5007 19.4304V15.2304C24.5007 11.7304 23.1007 10.3304 19.6007 10.3304H15.4007C11.9007 10.3304 10.5007 11.7304 10.5007 15.2304V19.4304C10.5007 22.9304 11.9007 24.3304 15.4007 24.3304Z" stroke="white" stroke-width="1.2" stroke-linecap="round" stroke-linejoin="round"/>
<path d="M16.1882 21.7054H18.8132C21.0007 21.7054 21.8757 20.8304 21.8757 18.6429V16.0179C21.8757 13.8304 21.0007 12.9554 18.8132 12.9554H16.1882C14.0007 12.9554 13.1257 13.8304 13.1257 16.0179V18.6429C13.1257 20.8304 14.0007 21.7054 16.1882 21.7054Z" stroke="white" stroke-width="1.2" stroke-linecap="round" stroke-linejoin="round"/>
<path d="M14.0095 10.3304V8.58044" stroke="white" stroke-width="1.2" stroke-linecap="round" stroke-linejoin="round"/>
<path d="M17.5007 10.3304V8.58044" stroke="white" stroke-width="1.2" stroke-linecap="round" stroke-linejoin="round"/>
<path d="M21.0007 10.3304V8.58044" stroke="white" stroke-width="1.2" stroke-linecap="round" stroke-linejoin="round"/>
<path d="M24.5007 13.8304H26.2507" stroke="white" stroke-width="1.2" stroke-linecap="round" stroke-linejoin="round"/>
<path d="M24.5007 17.3304H26.2507" stroke="white" stroke-width="1.2" stroke-linecap="round" stroke-linejoin="round"/>
<path d="M24.5007 20.8304H26.2507" stroke="white" stroke-width="1.2" stroke-linecap="round" stroke-linejoin="round"/>
<path d="M21.0007 24.3304V26.0804" stroke="white" stroke-width="1.2" stroke-linecap="round" stroke-linejoin="round"/>
<path d="M17.5095 24.3304V26.0804" stroke="white" stroke-width="1.2" stroke-linecap="round" stroke-linejoin="round"/>
<path d="M14.0095 24.3304V26.0804" stroke="white" stroke-width="1.2" stroke-linecap="round" stroke-linejoin="round"/>
<path d="M8.75073 13.8304H10.5007" stroke="white" stroke-width="1.2" stroke-linecap="round" stroke-linejoin="round"/>
<path d="M8.75073 17.3304H10.5007" stroke="white" stroke-width="1.2" stroke-linecap="round" stroke-linejoin="round"/>
<path d="M8.75073 20.8304H10.5007" stroke="white" stroke-width="1.2" stroke-linecap="round" stroke-linejoin="round"/>
<path d="M17.5007 15.3179L16.6782 16.7529C16.4945 17.0679 16.6432 17.3304 17.0107 17.3304H17.9907C18.3582 17.3304 18.507 17.5929 18.3232 17.9079L17.5007 19.3429" stroke="white" stroke-width="1.2" stroke-linecap="round" stroke-linejoin="round"/>
<path d="M41.1186 15.0751V4.89325H44.7479C45.5367 4.89325 46.1913 5.02914 46.7116 5.30093C47.2353 5.57271 47.6264 5.94889 47.8849 6.42948C48.1435 6.90675 48.2727 7.4586 48.2727 8.08502C48.2727 8.70812 48.1418 9.25665 47.88 9.73061C47.6214 10.2013 47.2304 10.5675 46.7067 10.8293C46.1863 11.0912 45.5317 11.2221 44.7429 11.2221H41.9936V9.89965H44.6037C45.1009 9.89965 45.5052 9.82839 45.8168 9.68587C46.1316 9.54335 46.362 9.3362 46.5078 9.06442C46.6536 8.79264 46.7266 8.46617 46.7266 8.08502C46.7266 7.70055 46.652 7.36745 46.5028 7.08573C46.357 6.804 46.1267 6.58857 45.8118 6.43942C45.5002 6.28696 45.0909 6.21073 44.5838 6.21073H42.6548V15.0751H41.1186ZM46.1449 10.4813L48.6605 15.0751H46.9105L44.4446 10.4813H46.1449ZM53.2182 15.2292C52.4658 15.2292 51.8179 15.0684 51.2743 14.7469C50.7341 14.4221 50.3165 13.9664 50.0215 13.3798C49.7298 12.7898 49.584 12.0987 49.584 11.3066C49.584 10.5244 49.7298 9.83502 50.0215 9.23843C50.3165 8.64183 50.7275 8.17616 51.2544 7.84141C51.7847 7.50665 52.4045 7.33928 53.1138 7.33928C53.5447 7.33928 53.9623 7.41054 54.3667 7.55306C54.771 7.69557 55.1339 7.9193 55.4554 8.22422C55.7769 8.52915 56.0305 8.92522 56.2161 9.41243C56.4017 9.89633 56.4945 10.4846 56.4945 11.1773V11.7043H50.4242V10.5907H55.0378C55.0378 10.1996 54.9583 9.85325 54.7992 9.55164C54.6401 9.24671 54.4164 9.00642 54.128 8.83075C53.843 8.65509 53.5082 8.56726 53.1238 8.56726C52.7061 8.56726 52.3416 8.67001 52.03 8.8755C51.7218 9.07768 51.4831 9.34283 51.3141 9.67095C51.1484 9.99576 51.0655 10.3487 51.0655 10.7299V11.5999C51.0655 12.1103 51.155 12.5445 51.334 12.9025C51.5163 13.2604 51.7698 13.5339 52.0946 13.7228C52.4194 13.9084 52.7989 14.0012 53.2331 14.0012C53.5149 14.0012 53.7717 13.9614 54.0037 13.8819C54.2357 13.799 54.4363 13.6764 54.6053 13.514C54.7743 13.3516 54.9036 13.1511 54.9931 12.9124L56.4 13.166C56.2873 13.5803 56.0852 13.9432 55.7935 14.2548C55.5051 14.563 55.1422 14.8033 54.7047 14.9756C54.2705 15.1447 53.775 15.2292 53.2182 15.2292ZM61.3604 15.2292C60.6213 15.2292 59.985 15.0618 59.4513 14.7271C58.921 14.389 58.5134 13.9233 58.2283 13.33C57.9433 12.7368 57.8008 12.0573 57.8008 11.2917C57.8008 10.5161 57.9466 9.8317 58.2383 9.23843C58.5299 8.64183 58.9409 8.17616 59.4712 7.84141C60.0015 7.50665 60.6263 7.33928 61.3455 7.33928C61.9255 7.33928 62.4426 7.447 62.8967 7.66243C63.3507 7.87455 63.717 8.17285 63.9954 8.55732C64.2771 8.94179 64.4445 9.39089 64.4975 9.90462H63.0508C62.9712 9.54666 62.7889 9.23843 62.5039 8.9799C62.2222 8.72138 61.8443 8.59212 61.3704 8.59212C60.9561 8.59212 60.5932 8.70149 60.2816 8.92024C59.9734 9.13568 59.7331 9.44392 59.5607 9.84496C59.3884 10.2427 59.3022 10.7133 59.3022 11.2569C59.3022 11.8137 59.3867 12.2943 59.5558 12.6987C59.7248 13.103 59.9634 13.4162 60.2717 13.6383C60.5832 13.8603 60.9495 13.9714 61.3704 13.9714C61.6521 13.9714 61.9073 13.92 62.136 13.8173C62.368 13.7112 62.5619 13.5604 62.7177 13.3648C62.8768 13.1693 62.9878 12.934 63.0508 12.6589H64.4975C64.4445 13.1527 64.2837 13.5935 64.0153 13.9813C63.7468 14.3691 63.3872 14.674 62.9364 14.8961C62.489 15.1182 61.9637 15.2292 61.3604 15.2292ZM67.5737 10.541V15.0751H66.0872V4.89325H67.5538V8.68161H67.6483C67.8272 8.27062 68.1007 7.94415 68.4686 7.7022C68.8365 7.46025 69.3171 7.33928 69.9103 7.33928C70.434 7.33928 70.8914 7.447 71.2825 7.66243C71.6769 7.87787 71.9818 8.19936 72.1973 8.62692C72.416 9.05116 72.5254 9.58147 72.5254 10.2178V15.0751H71.0389V10.3968C71.0389 9.83667 70.8947 9.40249 70.6064 9.09425C70.318 8.7827 69.917 8.62692 69.4032 8.62692C69.0519 8.62692 68.737 8.70149 68.4586 8.85064C68.1835 8.99979 67.9664 9.21854 67.8074 9.50689C67.6516 9.79193 67.5737 10.1366 67.5737 10.541ZM76.7314 15.2441C76.2475 15.2441 75.81 15.1546 75.4189 14.9756C75.0278 14.7933 74.7179 14.5299 74.4892 14.1852C74.2638 13.8405 74.1511 13.4179 74.1511 12.9174C74.1511 12.4865 74.234 12.1319 74.3997 11.8535C74.5654 11.5751 74.7891 11.3547 75.0708 11.1923C75.3526 11.0299 75.6674 10.9072 76.0154 10.8244C76.3635 10.7415 76.7181 10.6785 77.0794 10.6354C77.5368 10.5824 77.908 10.5393 78.193 10.5062C78.478 10.4697 78.6852 10.4117 78.8145 10.3322C78.9437 10.2526 79.0083 10.1234 79.0083 9.94439V9.90959C79.0083 9.4754 78.8857 9.13899 78.6404 8.90036C78.3985 8.66172 78.0372 8.5424 77.5566 8.5424C77.0562 8.5424 76.6618 8.65343 76.3734 8.8755C76.0884 9.09425 75.8912 9.33786 75.7818 9.60632L74.3848 9.28814C74.5505 8.82413 74.7924 8.4496 75.1106 8.16456C75.4321 7.87621 75.8017 7.6674 76.2193 7.53814C76.6369 7.40557 77.0761 7.33928 77.5368 7.33928C77.8417 7.33928 78.1648 7.37574 78.5062 7.44865C78.8509 7.51826 79.1724 7.64752 79.4707 7.83644C79.7723 8.02536 80.0192 8.29548 80.2115 8.64681C80.4037 8.99482 80.4998 9.44723 80.4998 10.0041V15.0751H79.0481V14.031H78.9885C78.8923 14.2233 78.7482 14.4122 78.5559 14.5978C78.3637 14.7834 78.1168 14.9375 77.8152 15.0602C77.5136 15.1828 77.1523 15.2441 76.7314 15.2441ZM77.0545 14.0509C77.4655 14.0509 77.8168 13.9697 78.1085 13.8073C78.4035 13.6449 78.6272 13.4328 78.7797 13.171C78.9354 12.9058 79.0133 12.6224 79.0133 12.3208V11.3364C78.9603 11.3895 78.8575 11.4392 78.7051 11.4856C78.5559 11.5287 78.3852 11.5668 78.193 11.5999C78.0008 11.6298 77.8135 11.6579 77.6312 11.6844C77.4489 11.7076 77.2965 11.7275 77.1738 11.7441C76.8855 11.7806 76.622 11.8419 76.3833 11.9281C76.148 12.0142 75.9591 12.1385 75.8166 12.3009C75.6774 12.46 75.6078 12.6721 75.6078 12.9373C75.6078 13.3052 75.7437 13.5836 76.0154 13.7725C76.2872 13.9581 76.6336 14.0509 77.0545 14.0509ZM82.4798 15.0751V7.43871H83.9165V8.65178H83.9961C84.1353 8.24079 84.3806 7.91764 84.7319 7.68232C85.0865 7.44368 85.4876 7.32436 85.935 7.32436C86.0278 7.32436 86.1372 7.32768 86.2631 7.33431C86.3924 7.34093 86.4935 7.34922 86.5664 7.35916V8.78104C86.5067 8.76447 86.4007 8.74624 86.2482 8.72635C86.0958 8.70315 85.9433 8.69155 85.7908 8.69155C85.4395 8.69155 85.1263 8.76612 84.8512 8.91527C84.5794 9.06111 84.364 9.26494 84.2049 9.52678C84.0458 9.7853 83.9663 10.0803 83.9663 10.4117V15.0751H82.4798ZM90.7811 18.0978C90.1745 18.0978 89.6525 18.0183 89.215 17.8592C88.7808 17.7001 88.4262 17.4896 88.1511 17.2278C87.876 16.9659 87.6705 16.6792 87.5346 16.3677L88.8123 15.8407C88.9018 15.9865 89.0211 16.1407 89.1703 16.3031C89.3227 16.4688 89.5282 16.6096 89.7868 16.7256C90.0486 16.8416 90.385 16.8996 90.796 16.8996C91.3594 16.8996 91.8251 16.7621 92.193 16.487C92.5609 16.2152 92.7449 15.781 92.7449 15.1844V13.683H92.6504C92.5609 13.8454 92.4316 14.0261 92.2626 14.2249C92.0969 14.4238 91.8682 14.5961 91.5765 14.742C91.2849 14.8878 90.9054 14.9607 90.438 14.9607C89.8348 14.9607 89.2913 14.8199 88.8074 14.5381C88.3268 14.2531 87.9456 13.8338 87.6639 13.2803C87.3855 12.7235 87.2463 12.0391 87.2463 11.2271C87.2463 10.415 87.3838 9.71901 87.6589 9.13899C87.9373 8.55897 88.3185 8.11485 88.8024 7.80661C89.2863 7.49505 89.8348 7.33928 90.448 7.33928C90.9219 7.33928 91.3047 7.41882 91.5964 7.57791C91.8881 7.73369 92.1151 7.91598 92.2775 8.12479C92.4432 8.3336 92.5708 8.51754 92.6603 8.67664H92.7697V7.43871H94.2264V15.2441C94.2264 15.9004 94.0739 16.4389 93.769 16.8599C93.4641 17.2808 93.0514 17.5924 92.5311 17.7945C92.014 17.9967 91.4307 18.0978 90.7811 18.0978ZM90.7662 13.7278C91.1937 13.7278 91.555 13.6283 91.85 13.4295C92.1483 13.2273 92.3736 12.9389 92.5261 12.5644C92.6819 12.1866 92.7598 11.7342 92.7598 11.2072C92.7598 10.6934 92.6835 10.241 92.5311 9.84993C92.3786 9.45883 92.1549 9.15391 91.8599 8.93516C91.5649 8.71309 91.2003 8.60206 90.7662 8.60206C90.3187 8.60206 89.9458 8.71807 89.6475 8.95007C89.3493 9.17877 89.1239 9.49032 88.9714 9.88473C88.8223 10.2791 88.7477 10.72 88.7477 11.2072C88.7477 11.7076 88.8239 12.1468 88.9764 12.5246C89.1288 12.9025 89.3542 13.1975 89.6525 13.4096C89.9541 13.6217 90.3253 13.7278 90.7662 13.7278ZM96.22 15.0751V7.43871H97.7065V15.0751H96.22ZM96.9707 6.26044C96.7122 6.26044 96.4901 6.17427 96.3045 6.00192C96.1222 5.82626 96.0311 5.61745 96.0311 5.3755C96.0311 5.13023 96.1222 4.92143 96.3045 4.74908C96.4901 4.57342 96.7122 4.48558 96.9707 4.48558C97.2292 4.48558 97.4496 4.57342 97.6319 4.74908C97.8175 4.92143 97.9103 5.13023 97.9103 5.3755C97.9103 5.61745 97.8175 5.82626 97.6319 6.00192C97.4496 6.17427 97.2292 6.26044 96.9707 6.26044ZM101.193 10.541V15.0751H99.7063V7.43871H101.133V8.68161H101.228C101.403 8.27725 101.678 7.95244 102.053 7.70718C102.431 7.46191 102.906 7.33928 103.48 7.33928C104 7.33928 104.456 7.44865 104.847 7.6674C105.238 7.88284 105.541 8.20433 105.757 8.63189C105.972 9.05945 106.08 9.58809 106.08 10.2178V15.0751H104.593V10.3968C104.593 9.8433 104.449 9.41077 104.161 9.09922C103.873 8.78435 103.476 8.62692 102.973 8.62692C102.628 8.62692 102.321 8.70149 102.053 8.85064C101.788 8.99979 101.577 9.21854 101.422 9.50689C101.269 9.79193 101.193 10.1366 101.193 10.541ZM111.275 18.0978C110.669 18.0978 110.147 18.0183 109.709 17.8592C109.275 17.7001 108.92 17.4896 108.645 17.2278C108.37 16.9659 108.165 16.6792 108.029 16.3677L109.306 15.8407C109.396 15.9865 109.515 16.1407 109.664 16.3031C109.817 16.4688 110.022 16.6096 110.281 16.7256C110.543 16.8416 110.879 16.8996 111.29 16.8996C111.854 16.8996 112.319 16.7621 112.687 16.487C113.055 16.2152 113.239 15.781 113.239 15.1844V13.683H113.145C113.055 13.8454 112.926 14.0261 112.757 14.2249C112.591 14.4238 112.362 14.5961 112.071 14.742C111.779 14.8878 111.4 14.9607 110.932 14.9607C110.329 14.9607 109.785 14.8199 109.301 14.5381C108.821 14.2531 108.44 13.8338 108.158 13.2803C107.88 12.7235 107.74 12.0391 107.74 11.2271C107.74 10.415 107.878 9.71901 108.153 9.13899C108.431 8.55897 108.813 8.11485 109.297 7.80661C109.78 7.49505 110.329 7.33928 110.942 7.33928C111.416 7.33928 111.799 7.41882 112.091 7.57791C112.382 7.73369 112.609 7.91598 112.772 8.12479C112.937 8.3336 113.065 8.51754 113.154 8.67664H113.264V7.43871H114.721V15.2441C114.721 15.9004 114.568 16.4389 114.263 16.8599C113.958 17.2808 113.546 17.5924 113.025 17.7945C112.508 17.9967 111.925 18.0978 111.275 18.0978ZM111.26 13.7278C111.688 13.7278 112.049 13.6283 112.344 13.4295C112.642 13.2273 112.868 12.9389 113.02 12.5644C113.176 12.1866 113.254 11.7342 113.254 11.2072C113.254 10.6934 113.178 10.241 113.025 9.84993C112.873 9.45883 112.649 9.15391 112.354 8.93516C112.059 8.71309 111.694 8.60206 111.26 8.60206C110.813 8.60206 110.44 8.71807 110.142 8.95007C109.843 9.17877 109.618 9.49032 109.466 9.88473C109.316 10.2791 109.242 10.72 109.242 11.2072C109.242 11.7076 109.318 12.1468 109.471 12.5246C109.623 12.9025 109.848 13.1975 110.147 13.4096C110.448 13.6217 110.819 13.7278 111.26 13.7278ZM126.142 9.30306L124.794 9.54169C124.738 9.36934 124.648 9.20528 124.526 9.0495C124.406 8.89373 124.244 8.76612 124.039 8.66669C123.833 8.56726 123.576 8.51754 123.268 8.51754C122.847 8.51754 122.496 8.612 122.214 8.80093C121.932 8.98653 121.791 9.22682 121.791 9.52181C121.791 9.77701 121.886 9.98251 122.075 10.1383C122.264 10.2941 122.569 10.4217 122.99 10.5211L124.203 10.7995C124.905 10.9619 125.429 11.2121 125.774 11.5502C126.118 11.8883 126.291 12.3274 126.291 12.8677C126.291 13.3251 126.158 13.7327 125.893 14.0907C125.631 14.4453 125.265 14.7237 124.794 14.9259C124.327 15.1281 123.785 15.2292 123.169 15.2292C122.313 15.2292 121.616 15.0469 121.075 14.6823C120.535 14.3144 120.204 13.7924 120.081 13.1163L121.518 12.8975C121.607 13.272 121.791 13.5554 122.07 13.7477C122.348 13.9366 122.711 14.031 123.159 14.031C123.646 14.031 124.035 13.93 124.327 13.7278C124.619 13.5223 124.764 13.272 124.764 12.9771C124.764 12.7384 124.675 12.5379 124.496 12.3755C124.32 12.2131 124.05 12.0905 123.686 12.0076L122.393 11.7242C121.68 11.5618 121.153 11.3033 120.812 10.9487C120.474 10.594 120.305 10.1449 120.305 9.60135C120.305 9.15059 120.431 8.75618 120.683 8.41811C120.935 8.08004 121.283 7.81655 121.727 7.62763C122.171 7.4354 122.68 7.33928 123.253 7.33928C124.078 7.33928 124.728 7.51826 125.202 7.87621C125.676 8.23085 125.989 8.70647 126.142 9.30306ZM127.925 17.9387V7.43871H129.377V8.67664H129.501C129.587 8.51754 129.712 8.3336 129.874 8.12479C130.036 7.91598 130.262 7.73369 130.55 7.57791C130.838 7.41882 131.22 7.33928 131.694 7.33928C132.31 7.33928 132.86 7.49505 133.344 7.80661C133.828 8.11816 134.208 8.56726 134.483 9.15391C134.761 9.74056 134.9 10.4465 134.9 11.2718C134.9 12.0971 134.763 12.8047 134.488 13.3947C134.212 13.9813 133.835 14.4337 133.354 14.7519C132.873 15.0668 132.325 15.2242 131.708 15.2242C131.244 15.2242 130.865 15.1463 130.57 14.9906C130.278 14.8348 130.05 14.6525 129.884 14.4437C129.718 14.2349 129.591 14.0493 129.501 13.8869H129.412V17.9387H127.925ZM129.382 11.2569C129.382 11.7938 129.46 12.2645 129.615 12.6688C129.771 13.0732 129.997 13.3897 130.292 13.6184C130.587 13.8438 130.948 13.9565 131.375 13.9565C131.819 13.9565 132.191 13.8388 132.489 13.6035C132.787 13.3648 133.013 13.0417 133.165 12.634C133.321 12.2264 133.399 11.7673 133.399 11.2569C133.399 10.7531 133.323 10.3007 133.17 9.89965C133.021 9.49861 132.796 9.18208 132.494 8.95007C132.196 8.71807 131.823 8.60206 131.375 8.60206C130.944 8.60206 130.58 8.71309 130.282 8.93516C129.987 9.15722 129.763 9.46712 129.61 9.86485C129.458 10.2626 129.382 10.7266 129.382 11.2569ZM139.857 15.2292C139.105 15.2292 138.457 15.0684 137.913 14.7469C137.373 14.4221 136.955 13.9664 136.66 13.3798C136.368 12.7898 136.223 12.0987 136.223 11.3066C136.223 10.5244 136.368 9.83502 136.66 9.23843C136.955 8.64183 137.366 8.17616 137.893 7.84141C138.423 7.50665 139.043 7.33928 139.752 7.33928C140.183 7.33928 140.601 7.41054 141.005 7.55306C141.41 7.69557 141.773 7.9193 142.094 8.22422C142.416 8.52915 142.669 8.92522 142.855 9.41243C143.04 9.89633 143.133 10.4846 143.133 11.1773V11.7043H137.063V10.5907H141.676C141.676 10.1996 141.597 9.85325 141.438 9.55164C141.279 9.24671 141.055 9.00642 140.767 8.83075C140.482 8.65509 140.147 8.56726 139.762 8.56726C139.345 8.56726 138.98 8.67001 138.669 8.8755C138.36 9.07768 138.122 9.34283 137.953 9.67095C137.787 9.99576 137.704 10.3487 137.704 10.7299V11.5999C137.704 12.1103 137.794 12.5445 137.973 12.9025C138.155 13.2604 138.408 13.5339 138.733 13.7228C139.058 13.9084 139.438 14.0012 139.872 14.0012C140.154 14.0012 140.41 13.9614 140.642 13.8819C140.874 13.799 141.075 13.6764 141.244 13.514C141.413 13.3516 141.542 13.1511 141.632 12.9124L143.039 13.166C142.926 13.5803 142.724 13.9432 142.432 14.2548C142.144 14.563 141.781 14.8033 141.343 14.9756C140.909 15.1447 140.414 15.2292 139.857 15.2292ZM148.074 15.2292C147.321 15.2292 146.673 15.0684 146.13 14.7469C145.59 14.4221 145.172 13.9664 144.877 13.3798C144.585 12.7898 144.439 12.0987 144.439 11.3066C144.439 10.5244 144.585 9.83502 144.877 9.23843C145.172 8.64183 145.583 8.17616 146.11 7.84141C146.64 7.50665 147.26 7.33928 147.969 7.33928C148.4 7.33928 148.818 7.41054 149.222 7.55306C149.626 7.69557 149.989 7.9193 150.311 8.22422C150.632 8.52915 150.886 8.92522 151.072 9.41243C151.257 9.89633 151.35 10.4846 151.35 11.1773V11.7043H145.28V10.5907H149.893C149.893 10.1996 149.814 9.85325 149.655 9.55164C149.496 9.24671 149.272 9.00642 148.983 8.83075C148.698 8.65509 148.364 8.56726 147.979 8.56726C147.562 8.56726 147.197 8.67001 146.885 8.8755C146.577 9.07768 146.339 9.34283 146.17 9.67095C146.004 9.99576 145.921 10.3487 145.921 10.7299V11.5999C145.921 12.1103 146.01 12.5445 146.189 12.9025C146.372 13.2604 146.625 13.5339 146.95 13.7228C147.275 13.9084 147.654 14.0012 148.089 14.0012C148.37 14.0012 148.627 13.9614 148.859 13.8819C149.091 13.799 149.292 13.6764 149.461 13.514C149.63 13.3516 149.759 13.1511 149.849 12.9124L151.256 13.166C151.143 13.5803 150.941 13.9432 150.649 14.2548C150.361 14.563 149.998 14.8033 149.56 14.9756C149.126 15.1447 148.631 15.2292 148.074 15.2292ZM155.858 15.2242C155.241 15.2242 154.691 15.0668 154.207 14.7519C153.727 14.4337 153.349 13.9813 153.074 13.3947C152.802 12.8047 152.666 12.0971 152.666 11.2718C152.666 10.4465 152.804 9.74056 153.079 9.15391C153.357 8.56726 153.738 8.11816 154.222 7.80661C154.706 7.49505 155.255 7.33928 155.868 7.33928C156.342 7.33928 156.723 7.41882 157.011 7.57791C157.303 7.73369 157.528 7.91598 157.688 8.12479C157.85 8.3336 157.976 8.51754 158.065 8.67664H158.155V4.89325H159.641V15.0751H158.19V13.8869H158.065C157.976 14.0493 157.847 14.2349 157.678 14.4437C157.512 14.6525 157.283 14.8348 156.991 14.9906C156.7 15.1463 156.322 15.2242 155.858 15.2242ZM156.186 13.9565C156.614 13.9565 156.975 13.8438 157.27 13.6184C157.568 13.3897 157.794 13.0732 157.946 12.6688C158.102 12.2645 158.18 11.7938 158.18 11.2569C158.18 10.7266 158.103 10.2626 157.951 9.86485C157.799 9.46712 157.575 9.15722 157.28 8.93516C156.985 8.71309 156.62 8.60206 156.186 8.60206C155.739 8.60206 155.366 8.71807 155.067 8.95007C154.769 9.18208 154.544 9.49861 154.391 9.89965C154.242 10.3007 154.168 10.7531 154.168 11.2569C154.168 11.7673 154.244 12.2264 154.396 12.634C154.549 13.0417 154.774 13.3648 155.072 13.6035C155.374 13.8388 155.745 13.9565 156.186 13.9565Z" fill="#FFFEF0"/>
<path d="M58.5117 30.7051C57.8697 30.7051 57.3228 30.5304 56.8711 30.181C56.4194 29.8287 56.0742 29.3188 55.8356 28.6512C55.5969 27.9807 55.4776 27.171 55.4776 26.2222C55.4776 25.279 55.5969 24.4736 55.8356 23.806C56.0771 23.1355 56.4237 22.6242 56.8754 22.2719C57.3299 21.9168 57.8754 21.7392 58.5117 21.7392C59.1481 21.7392 59.6921 21.9168 60.1438 22.2719C60.5984 22.6242 60.945 23.1355 61.1836 23.806C61.4251 24.4736 61.5458 25.279 61.5458 26.2222C61.5458 27.171 61.4265 27.9807 61.1879 28.6512C60.9492 29.3188 60.604 29.8287 60.1523 30.181C59.7006 30.5304 59.1538 30.7051 58.5117 30.7051ZM58.5117 29.7676C59.1481 29.7676 59.6424 29.4608 59.9947 28.8472C60.3469 28.2335 60.5231 27.3585 60.5231 26.2222C60.5231 25.4665 60.4421 24.823 60.2802 24.2918C60.1211 23.7605 59.891 23.3557 59.5898 23.0773C59.2915 22.7989 58.9322 22.6597 58.5117 22.6597C57.881 22.6597 57.3881 22.9708 57.033 23.5929C56.6779 24.2122 56.5004 25.0887 56.5004 26.2222C56.5004 26.9779 56.5799 27.6199 56.739 28.1483C56.8981 28.6767 57.1268 29.0787 57.4251 29.3543C57.7262 29.6298 58.0884 29.7676 58.5117 29.7676ZM63.6104 30.654C63.4002 30.654 63.2198 30.5787 63.0692 30.4281C62.9187 30.2776 62.8434 30.0972 62.8434 29.887C62.8434 29.6767 62.9187 29.4963 63.0692 29.3458C63.2198 29.1952 63.4002 29.1199 63.6104 29.1199C63.8207 29.1199 64.0011 29.1952 64.1516 29.3458C64.3022 29.4963 64.3775 29.6767 64.3775 29.887C64.3775 30.0262 64.342 30.154 64.271 30.2705C64.2028 30.387 64.1104 30.4807 63.994 30.5517C63.8803 30.6199 63.7525 30.654 63.6104 30.654ZM68.7166 30.7051C68.2166 30.7051 67.7663 30.6057 67.3658 30.4068C66.9652 30.208 66.6442 29.9352 66.4027 29.5887C66.1612 29.2421 66.0291 28.8472 66.0064 28.404H67.0291C67.0689 28.7989 67.2479 29.1256 67.5661 29.3841C67.8871 29.6398 68.2706 29.7676 68.7166 29.7676C69.0746 29.7676 69.3928 29.6838 69.6712 29.5162C69.9524 29.3486 70.1726 29.1185 70.3317 28.8259C70.4936 28.5304 70.5746 28.1966 70.5746 27.8245C70.5746 27.4438 70.4908 27.1043 70.3232 26.806C70.1584 26.5048 69.9311 26.2676 69.6413 26.0943C69.3516 25.921 69.0206 25.833 68.6484 25.8301C68.3814 25.8273 68.1072 25.8685 67.826 25.9537C67.5447 26.0361 67.3132 26.1426 67.1314 26.2733L66.1428 26.154L66.6712 21.8585H71.2053V22.796H67.5575L67.2507 25.3699H67.3018C67.4808 25.2279 67.7053 25.11 67.9751 25.0162C68.245 24.9225 68.5263 24.8756 68.8189 24.8756C69.353 24.8756 69.8288 25.0034 70.2464 25.2591C70.6669 25.512 70.9964 25.8585 71.2351 26.2989C71.4766 26.7392 71.5973 27.2421 71.5973 27.8074C71.5973 28.3642 71.4723 28.8614 71.2223 29.2989C70.9751 29.7335 70.6342 30.0773 70.1996 30.3301C69.7649 30.5801 69.2706 30.7051 68.7166 30.7051ZM76.1367 30.7051C75.4947 30.7051 74.9478 30.5304 74.4961 30.181C74.0444 29.8287 73.6992 29.3188 73.4606 28.6512C73.2219 27.9807 73.1026 27.171 73.1026 26.2222C73.1026 25.279 73.2219 24.4736 73.4606 23.806C73.7021 23.1355 74.0487 22.6242 74.5004 22.2719C74.9549 21.9168 75.5004 21.7392 76.1367 21.7392C76.7731 21.7392 77.3171 21.9168 77.7688 22.2719C78.2234 22.6242 78.57 23.1355 78.8086 23.806C79.0501 24.4736 79.1708 25.279 79.1708 26.2222C79.1708 27.171 79.0515 27.9807 78.8129 28.6512C78.5742 29.3188 78.229 29.8287 77.7773 30.181C77.3256 30.5304 76.7788 30.7051 76.1367 30.7051ZM76.1367 29.7676C76.7731 29.7676 77.2674 29.4608 77.6197 28.8472C77.9719 28.2335 78.1481 27.3585 78.1481 26.2222C78.1481 25.4665 78.0671 24.823 77.9052 24.2918C77.7461 23.7605 77.516 23.3557 77.2148 23.0773C76.9165 22.7989 76.5572 22.6597 76.1367 22.6597C75.506 22.6597 75.0131 22.9708 74.658 23.5929C74.3029 24.2122 74.1254 25.0887 74.1254 26.2222C74.1254 26.9779 74.2049 27.6199 74.364 28.1483C74.5231 28.6767 74.7518 29.0787 75.0501 29.3543C75.3512 29.6298 75.7134 29.7676 76.1367 29.7676ZM83.8413 22.796V21.8585H90.3867V22.796H87.6424V30.5858H86.5856V22.796H83.8413ZM99.0181 26.2222C99.0181 27.1426 98.8519 27.9381 98.5195 28.6085C98.1871 29.279 97.7312 29.796 97.1516 30.1597C96.5721 30.5233 95.9102 30.7051 95.1658 30.7051C94.4215 30.7051 93.7596 30.5233 93.18 30.1597C92.6005 29.796 92.1445 29.279 91.8121 28.6085C91.4798 27.9381 91.3136 27.1426 91.3136 26.2222C91.3136 25.3017 91.4798 24.5063 91.8121 23.8358C92.1445 23.1654 92.6005 22.6483 93.18 22.2847C93.7596 21.921 94.4215 21.7392 95.1658 21.7392C95.9102 21.7392 96.5721 21.921 97.1516 22.2847C97.7312 22.6483 98.1871 23.1654 98.5195 23.8358C98.8519 24.5063 99.0181 25.3017 99.0181 26.2222ZM97.9954 26.2222C97.9954 25.4665 97.869 24.8287 97.6161 24.3088C97.3661 23.7889 97.0266 23.3955 96.5977 23.1284C96.1715 22.8614 95.6942 22.7279 95.1658 22.7279C94.6374 22.7279 94.1587 22.8614 93.7298 23.1284C93.3036 23.3955 92.9641 23.7889 92.7113 24.3088C92.4613 24.8287 92.3363 25.4665 92.3363 26.2222C92.3363 26.9779 92.4613 27.6156 92.7113 28.1355C92.9641 28.6554 93.3036 29.0489 93.7298 29.3159C94.1587 29.583 94.6374 29.7165 95.1658 29.7165C95.6942 29.7165 96.1715 29.583 96.5977 29.3159C97.0266 29.0489 97.3661 28.6554 97.6161 28.1355C97.869 27.6156 97.9954 26.9779 97.9954 26.2222ZM107.716 21.8585V30.5858H106.693L101.937 23.7335H101.852V30.5858H100.795V21.8585H101.818L106.591 28.7279H106.676V21.8585H107.716Z" fill="#98978E"/>
<g clip-path="url(#clip0_32_458)">
<path d="M46 32.0858C49.3137 32.0858 52 29.3995 52 26.0858C52 22.7721 49.3137 20.0858 46 20.0858C42.6863 20.0858 40 22.7721 40 26.0858C40 29.3995 42.6863 32.0858 46 32.0858Z" fill="#0088CC"/>
<path fill-rule="evenodd" clip-rule="evenodd" d="M44.3286 24.0501H47.6929C47.8195 24.0477 47.9448 24.0772 48.0571 24.1358C48.1775 24.1859 48.2762 24.277 48.3357 24.393C48.3357 24.3958 48.3363 24.3986 48.3373 24.4012C48.3384 24.4038 48.34 24.4061 48.342 24.4081C48.344 24.4101 48.3463 24.4117 48.3489 24.4127C48.3515 24.4138 48.3543 24.4144 48.3571 24.4144C48.4276 24.5307 48.4647 24.6641 48.4643 24.8001C48.4692 24.9366 48.4318 25.0714 48.3571 25.1858L46.2357 28.8287C46.2131 28.8706 46.1787 28.9051 46.1369 28.9279C46.0951 28.9507 46.0475 28.9609 46 28.9572C45.9533 28.9559 45.9077 28.9436 45.8667 28.9212C45.8257 28.8989 45.7906 28.8672 45.7643 28.8287L43.6857 25.1858C43.6106 25.0783 43.5661 24.9524 43.5571 24.8215C43.5418 24.6802 43.5718 24.5376 43.6429 24.4144C43.6738 24.3479 43.7184 24.2888 43.7738 24.2408C43.8292 24.1928 43.8941 24.157 43.9643 24.1358C44.0745 24.0717 44.2013 24.0419 44.3286 24.0501ZM45.7429 24.5644H44.3286C44.2429 24.5644 44.2 24.5644 44.1786 24.5858C44.1403 24.6026 44.1097 24.6332 44.0929 24.6715C44.0734 24.7036 44.0658 24.7415 44.0714 24.7787C44.0714 24.8001 44.0929 24.8215 44.1357 24.9072L45.7429 27.693V24.5644ZM46.2571 24.5644V27.7144L47.8857 24.9072C47.9032 24.8667 47.9105 24.8226 47.9071 24.7787C47.9127 24.7415 47.9051 24.7036 47.8857 24.6715C47.8643 24.6501 47.8643 24.6287 47.8429 24.6287L47.8214 24.6072C47.7739 24.5881 47.7224 24.5807 47.6714 24.5858H46.2571V24.5644Z" fill="#FFFEF0"/>
</g>
<defs>
<clipPath id="clip0_32_458">
<rect width="12" height="12" fill="white" transform="translate(40 20.0858)"/>
</clipPath>
</defs>
</svg>
