<svg width="320" height="568" viewBox="0 0 320 568" fill="none" xmlns="http://www.w3.org/2000/svg">
<g opacity="0.05">
<path d="M2.57268 -29.7563L2.57926 -29.7519L2.5861 -29.748L50.0889 -2.32215L50.093 -2.3199C51.865 -1.34017 53.3669 0.061354 54.4609 1.75577L54.4668 1.76481L54.4734 1.77332C55.7255 3.38883 56.3702 5.37943 56.2969 7.39607C56.2752 7.44656 56.2607 7.49993 56.2539 7.55471C56.2441 7.63253 56.25 7.71145 56.2709 7.7869C56.2919 7.86235 56.3274 7.93289 56.3754 7.9946C56.3918 8.01568 56.4095 8.03561 56.4284 8.05427C56.4689 10.1558 55.935 12.2207 54.8826 14.0298L54.8824 14.0297L54.8777 14.0385C53.8783 15.9267 52.3092 17.4536 50.385 18.4096L50.3849 18.4093L50.3737 18.4155L-8.7601 51.6625L-8.76016 51.6624L-8.76708 51.6666C-9.38098 52.0383 -10.0938 52.2244 -10.8195 52.2014C-11.5452 52.1785 -12.2523 51.9475 -12.8547 51.5362L-12.8546 51.536L-12.8648 51.5297C-13.4799 51.1515 -13.9981 50.6358 -14.377 50.0249C-14.754 49.4171 -14.9824 48.7323 -15.0441 48.0263L-15.2131 -19.4488L-15.2131 -19.4604L-15.2142 -19.4719C-15.4098 -21.5304 -15.0369 -23.5938 -14.1358 -25.4408L-14.1357 -25.4407L-14.1316 -25.4499C-13.2372 -27.4865 -11.7084 -29.1791 -9.76549 -30.283L-9.75595 -30.2884L-9.74692 -30.2947C-8.80697 -30.9439 -7.73599 -31.3872 -6.60391 -31.5953C-5.4718 -31.8035 -4.30413 -31.7717 -3.17734 -31.5018L-3.14922 -31.4951L-3.1203 -31.495C-1.09961 -31.4853 0.882129 -30.8802 2.57268 -29.7563ZM18.7774 -11.175L18.9024 -11.3915L18.6859 -11.5165L-1.28341 -23.0458L-1.29756 -23.054C-1.89071 -23.3964 -2.35412 -23.664 -2.72847 -23.8288C-3.08524 -23.986 -3.40612 -24.0713 -3.71301 -24.0079C-4.42981 -24.0806 -5.14644 -23.8923 -5.72809 -23.4765C-6.29957 -23.1635 -6.74259 -22.6633 -6.9822 -22.0596C-7.0982 -21.845 -7.10158 -21.5845 -7.10057 -21.2633C-7.1004 -21.2087 -7.09996 -21.1507 -7.09949 -21.0887C-7.09693 -20.7524 -7.09349 -20.3001 -7.12749 -19.6579L-7.12789 -19.6504L-7.12783 -19.6429L-6.74936 32.1076L-6.74263 33.0271L-6.28286 32.2307L18.7774 -11.175ZM0.374072 36.4705L-0.0834967 37.2631L0.713463 36.8132L46.1941 11.1432L46.2072 11.1358L46.2193 11.1269C46.8154 10.6888 47.2946 10.1137 47.6168 9.44987C48.0185 8.93779 48.2278 8.30131 48.2092 7.64805L48.2083 7.61765L48.2002 7.58834C48.1587 7.43857 48.1542 7.32196 48.1493 7.19613C48.1475 7.1505 48.1457 7.10366 48.1421 7.05358C48.1358 6.96694 48.1222 6.86105 48.0733 6.75847C48.036 6.68029 47.9831 6.61351 47.9143 6.55758L47.8074 6.17239L47.7939 6.12361L47.7625 6.08394C47.2226 5.40265 46.527 4.8582 45.7348 4.49657L25.9924 -6.90171L26.039 -6.9825L25.8225 -7.1075L25.606 -7.2325L25.4344 -6.9352L25.3094 -6.7187L0.374072 36.4705Z" fill="white" fill-opacity="0.15" stroke="white" stroke-width="0.5"/>
<path d="M2.57268 78.6191L2.57926 78.6234L2.5861 78.6274L50.0889 106.053L50.093 106.055C51.865 107.035 53.3669 108.437 54.4609 110.131L54.4668 110.14L54.4734 110.149C55.7255 111.764 56.3702 113.755 56.2969 115.771C56.2752 115.822 56.2607 115.875 56.2539 115.93C56.2441 116.008 56.25 116.087 56.2709 116.162C56.2919 116.238 56.3274 116.308 56.3754 116.37C56.3918 116.391 56.4095 116.411 56.4284 116.43C56.4689 118.531 55.935 120.596 54.8826 122.405L54.8824 122.405L54.8777 122.414C53.8783 124.302 52.3092 125.829 50.385 126.785L50.3849 126.785L50.3737 126.791L-8.7601 160.038L-8.76016 160.038L-8.76708 160.042C-9.38098 160.414 -10.0938 160.6 -10.8195 160.577C-11.5452 160.554 -12.2523 160.323 -12.8547 159.912L-12.8546 159.911L-12.8648 159.905C-13.4799 159.527 -13.9981 159.011 -14.377 158.4C-14.754 157.792 -14.9824 157.108 -15.0441 156.402L-15.2131 88.9265L-15.2131 88.915L-15.2142 88.9035C-15.4098 86.845 -15.0369 84.7816 -14.1358 82.9346L-14.1357 82.9347L-14.1316 82.9255C-13.2372 80.8888 -11.7084 79.1963 -9.76549 78.0924L-9.75595 78.087L-9.74692 78.0807C-8.80697 77.4315 -7.73599 76.9882 -6.60391 76.78C-5.4718 76.5719 -4.30413 76.6037 -3.17734 76.8735L-3.14922 76.8803L-3.1203 76.8804C-1.09961 76.89 0.882129 77.4951 2.57268 78.6191ZM18.7774 97.2004L18.9024 96.9839L18.6859 96.8589L-1.28341 85.3296L-1.29756 85.3214C-1.89071 84.9789 -2.35412 84.7114 -2.72847 84.5465C-3.08524 84.3894 -3.40612 84.3041 -3.71301 84.3675C-4.42981 84.2948 -5.14644 84.483 -5.72809 84.8989C-6.29957 85.2118 -6.74259 85.7121 -6.9822 86.3158C-7.0982 86.5304 -7.10158 86.7909 -7.10057 87.1121C-7.1004 87.1666 -7.09996 87.2247 -7.09949 87.2867C-7.09693 87.623 -7.09349 88.0753 -7.12749 88.7175L-7.12789 88.725L-7.12783 88.7325L-6.74936 140.483L-6.74263 141.402L-6.28286 140.606L18.7774 97.2004ZM0.374072 144.846L-0.0834967 145.638L0.713463 145.189L46.1941 119.519L46.2072 119.511L46.2193 119.502C46.8154 119.064 47.2946 118.489 47.6168 117.825C48.0185 117.313 48.2278 116.677 48.2092 116.023L48.2083 115.993L48.2002 115.964C48.1587 115.814 48.1542 115.697 48.1493 115.571C48.1475 115.526 48.1457 115.479 48.1421 115.429C48.1358 115.342 48.1222 115.236 48.0733 115.134C48.036 115.056 47.9831 114.989 47.9143 114.933L47.8074 114.548L47.7939 114.499L47.7625 114.459C47.2226 113.778 46.527 113.234 45.7348 112.872L25.9924 101.474L26.039 101.393L25.8225 101.268L25.606 101.143L25.4344 101.44L25.3094 101.657L0.374072 144.846Z" fill="white" fill-opacity="0.15" stroke="white" stroke-width="0.5"/>
<path d="M2.57268 186.994L2.57926 186.999L2.5861 187.003L50.0889 214.429L50.093 214.431C51.865 215.411 53.3669 216.812 54.4609 218.506L54.4668 218.516L54.4734 218.524C55.7255 220.14 56.3702 222.13 56.2969 224.147C56.2752 224.197 56.2607 224.251 56.2539 224.305C56.2441 224.383 56.25 224.462 56.2709 224.538C56.2919 224.613 56.3274 224.684 56.3754 224.745C56.3918 224.766 56.4095 224.786 56.4284 224.805C56.4689 226.906 55.935 228.971 54.8826 230.781L54.8824 230.78L54.8777 230.789C53.8783 232.677 52.3092 234.204 50.385 235.16L50.3849 235.16L50.3737 235.166L-8.7601 268.413L-8.76016 268.413L-8.76708 268.417C-9.38098 268.789 -10.0938 268.975 -10.8195 268.952C-11.5452 268.929 -12.2523 268.698 -12.8547 268.287L-12.8546 268.287L-12.8648 268.28C-13.4799 267.902 -13.9981 267.386 -14.377 266.776C-14.754 266.168 -14.9824 265.483 -15.0441 264.777L-15.2131 197.302L-15.2131 197.29L-15.2142 197.279C-15.4098 195.22 -15.0369 193.157 -14.1358 191.31L-14.1357 191.31L-14.1316 191.301C-13.2372 189.264 -11.7084 187.572 -9.76549 186.468L-9.75595 186.462L-9.74692 186.456C-8.80697 185.807 -7.73599 185.364 -6.60391 185.155C-5.4718 184.947 -4.30413 184.979 -3.17734 185.249L-3.14922 185.256L-3.1203 185.256C-1.09961 185.265 0.882129 185.87 2.57268 186.994ZM18.7774 205.576L18.9024 205.359L18.6859 205.234L-1.28341 193.705L-1.29756 193.697C-1.89071 193.354 -2.35412 193.087 -2.72847 192.922C-3.08524 192.765 -3.40612 192.679 -3.71301 192.743C-4.42981 192.67 -5.14644 192.858 -5.72809 193.274C-6.29957 193.587 -6.74259 194.087 -6.9822 194.691C-7.0982 194.906 -7.10158 195.166 -7.10057 195.487C-7.1004 195.542 -7.09996 195.6 -7.09949 195.662C-7.09693 195.998 -7.09349 196.451 -7.12749 197.093L-7.12789 197.1L-7.12783 197.108L-6.74936 248.858L-6.74263 249.778L-6.28286 248.981L18.7774 205.576ZM0.374072 253.221L-0.0834967 254.014L0.713463 253.564L46.1941 227.894L46.2072 227.887L46.2193 227.878C46.8154 227.44 47.2946 226.864 47.6168 226.201C48.0185 225.689 48.2278 225.052 48.2092 224.399L48.2083 224.368L48.2002 224.339C48.1587 224.189 48.1542 224.073 48.1493 223.947C48.1475 223.901 48.1457 223.854 48.1421 223.804C48.1358 223.718 48.1222 223.612 48.0733 223.509C48.036 223.431 47.9831 223.364 47.9143 223.308L47.8074 222.923L47.7939 222.874L47.7625 222.835C47.2226 222.153 46.527 221.609 45.7348 221.247L25.9924 209.849L26.039 209.768L25.8225 209.643L25.606 209.518L25.4344 209.816L25.3094 210.032L0.374072 253.221Z" fill="white" fill-opacity="0.15" stroke="white" stroke-width="0.5"/>
<path d="M2.57268 295.37L2.57926 295.374L2.5861 295.378L50.0889 322.804L50.093 322.806C51.865 323.786 53.3669 325.187 54.4609 326.882L54.4668 326.891L54.4734 326.899C55.7255 328.515 56.3702 330.506 56.2969 332.522C56.2752 332.573 56.2607 332.626 56.2539 332.681C56.2441 332.759 56.25 332.838 56.2709 332.913C56.2919 332.988 56.3274 333.059 56.3754 333.121C56.3918 333.142 56.4095 333.162 56.4284 333.18C56.4689 335.282 55.935 337.347 54.8826 339.156L54.8824 339.156L54.8777 339.165C53.8783 341.053 52.3092 342.58 50.385 343.536L50.3849 343.535L50.3737 343.542L-8.7601 376.789L-8.76016 376.788L-8.76708 376.793C-9.38098 377.164 -10.0938 377.35 -10.8195 377.328C-11.5452 377.305 -12.2523 377.074 -12.8547 376.662L-12.8546 376.662L-12.8648 376.656C-13.4799 376.278 -13.9981 375.762 -14.377 375.151C-14.754 374.543 -14.9824 373.858 -15.0441 373.152L-15.2131 305.677L-15.2131 305.666L-15.2142 305.654C-15.4098 303.596 -15.0369 301.532 -14.1358 299.685L-14.1357 299.685L-14.1316 299.676C-13.2372 297.64 -11.7084 295.947 -9.76549 294.843L-9.75595 294.838L-9.74692 294.831C-8.80697 294.182 -7.73599 293.739 -6.60391 293.531C-5.4718 293.323 -4.30413 293.354 -3.17734 293.624L-3.14922 293.631L-3.1203 293.631C-1.09961 293.641 0.882129 294.246 2.57268 295.37ZM18.7774 313.951L18.9024 313.735L18.6859 313.61L-1.28341 302.08L-1.29756 302.072C-1.89071 301.73 -2.35412 301.462 -2.72847 301.297C-3.08524 301.14 -3.40612 301.055 -3.71301 301.118C-4.42981 301.046 -5.14644 301.234 -5.72809 301.65C-6.29957 301.963 -6.74259 302.463 -6.9822 303.066C-7.0982 303.281 -7.10158 303.542 -7.10057 303.863C-7.1004 303.917 -7.09996 303.975 -7.09949 304.037C-7.09693 304.374 -7.09349 304.826 -7.12749 305.468L-7.12789 305.476L-7.12783 305.483L-6.74936 357.234L-6.74263 358.153L-6.28286 357.357L18.7774 313.951ZM0.374072 361.597L-0.0834967 362.389L0.713463 361.939L46.1941 336.269L46.2072 336.262L46.2193 336.253C46.8154 335.815 47.2946 335.24 47.6168 334.576C48.0185 334.064 48.2278 333.427 48.2092 332.774L48.2083 332.744L48.2002 332.714C48.1587 332.565 48.1542 332.448 48.1493 332.322C48.1475 332.277 48.1457 332.23 48.1421 332.18C48.1358 332.093 48.1222 331.987 48.0733 331.885C48.036 331.806 47.9831 331.74 47.9143 331.684L47.8074 331.298L47.7939 331.25L47.7625 331.21C47.2226 330.529 46.527 329.984 45.7348 329.623L25.9924 318.224L26.039 318.144L25.8225 318.019L25.606 317.894L25.4344 318.191L25.3094 318.407L0.374072 361.597Z" fill="white" fill-opacity="0.15" stroke="white" stroke-width="0.5"/>
<path d="M2.57268 403.745L2.57926 403.75L2.5861 403.753L50.0889 431.179L50.093 431.182C51.865 432.161 53.3669 433.563 54.4609 435.257L54.4668 435.266L54.4734 435.275C55.7255 436.89 56.3702 438.881 56.2969 440.898C56.2752 440.948 56.2607 441.001 56.2539 441.056C56.2441 441.134 56.25 441.213 56.2709 441.288C56.2919 441.364 56.3274 441.434 56.3754 441.496C56.3918 441.517 56.4095 441.537 56.4284 441.556C56.4689 443.657 55.935 445.722 54.8826 447.531L54.8824 447.531L54.8777 447.54C53.8783 449.428 52.3092 450.955 50.385 451.911L50.3849 451.911L50.3737 451.917L-8.7601 485.164L-8.76016 485.164L-8.76708 485.168C-9.38098 485.54 -10.0938 485.726 -10.8195 485.703C-11.5452 485.68 -12.2523 485.449 -12.8547 485.038L-12.8546 485.037L-12.8648 485.031C-13.4799 484.653 -13.9981 484.137 -14.377 483.526C-14.754 482.919 -14.9824 482.234 -15.0441 481.528L-15.2131 414.053L-15.2131 414.041L-15.2142 414.03C-15.4098 411.971 -15.0369 409.908 -14.1358 408.061L-14.1357 408.061L-14.1316 408.052C-13.2372 406.015 -11.7084 404.322 -9.76549 403.218L-9.75595 403.213L-9.74692 403.207C-8.80697 402.558 -7.73599 402.114 -6.60391 401.906C-5.4718 401.698 -4.30413 401.73 -3.17734 402L-3.14922 402.006L-3.1203 402.006C-1.09961 402.016 0.882129 402.621 2.57268 403.745ZM18.7774 422.326L18.9024 422.11L18.6859 421.985L-1.28341 410.456L-1.29756 410.447C-1.89071 410.105 -2.35412 409.837 -2.72847 409.673C-3.08524 409.515 -3.40612 409.43 -3.71301 409.494C-4.42981 409.421 -5.14644 409.609 -5.72809 410.025C-6.29957 410.338 -6.74259 410.838 -6.9822 411.442C-7.0982 411.656 -7.10158 411.917 -7.10057 412.238C-7.1004 412.293 -7.09996 412.351 -7.09949 412.413C-7.09693 412.749 -7.09349 413.201 -7.12749 413.844L-7.12789 413.851L-7.12783 413.859L-6.74936 465.609L-6.74263 466.529L-6.28286 465.732L18.7774 422.326ZM0.374072 469.972L-0.0834967 470.764L0.713463 470.315L46.1941 444.645L46.2072 444.637L46.2193 444.628C46.8154 444.19 47.2946 443.615 47.6168 442.951C48.0185 442.439 48.2278 441.803 48.2092 441.15L48.2083 441.119L48.2002 441.09C48.1587 440.94 48.1542 440.823 48.1493 440.698C48.1475 440.652 48.1457 440.605 48.1421 440.555C48.1358 440.468 48.1222 440.363 48.0733 440.26C48.036 440.182 47.9831 440.115 47.9143 440.059L47.8074 439.674L47.7939 439.625L47.7625 439.585C47.2226 438.904 46.527 438.36 45.7348 437.998L25.9924 426.6L26.039 426.519L25.8225 426.394L25.606 426.269L25.4344 426.566L25.3094 426.783L0.374072 469.972Z" fill="white" fill-opacity="0.15" stroke="white" stroke-width="0.5"/>
<path d="M2.57268 512.121L2.57926 512.125L2.5861 512.129L50.0889 539.555L50.093 539.557C51.865 540.537 53.3669 541.938 54.4609 543.633L54.4668 543.642L54.4734 543.65C55.7255 545.266 56.3702 547.256 56.2969 549.273C56.2752 549.323 56.2607 549.377 56.2539 549.432C56.2441 549.509 56.25 549.588 56.2709 549.664C56.2919 549.739 56.3274 549.81 56.3754 549.871C56.3918 549.892 56.4095 549.912 56.4284 549.931C56.4689 552.033 55.935 554.097 54.8826 555.907L54.8824 555.907L54.8777 555.915C53.8783 557.804 52.3092 559.33 50.385 560.286L50.3849 560.286L50.3737 560.292L-8.7601 593.539L-8.76016 593.539L-8.76708 593.543C-9.38098 593.915 -10.0938 594.101 -10.8195 594.078C-11.5452 594.055 -12.2523 593.824 -12.8547 593.413L-12.8546 593.413L-12.8648 593.407C-13.4799 593.028 -13.9981 592.513 -14.377 591.902C-14.754 591.294 -14.9824 590.609 -15.0441 589.903L-15.2131 522.428L-15.2131 522.416L-15.2142 522.405C-15.4098 520.346 -15.0369 518.283 -14.1358 516.436L-14.1357 516.436L-14.1316 516.427C-13.2372 514.39 -11.7084 512.698 -9.76549 511.594L-9.75595 511.588L-9.74692 511.582C-8.80697 510.933 -7.73599 510.49 -6.60391 510.281C-5.4718 510.073 -4.30413 510.105 -3.17734 510.375L-3.14922 510.382L-3.1203 510.382C-1.09961 510.391 0.882129 510.997 2.57268 512.121ZM18.7774 530.702L18.9024 530.485L18.6859 530.36L-1.28341 518.831L-1.29756 518.823C-1.89071 518.48 -2.35412 518.213 -2.72847 518.048C-3.08524 517.891 -3.40612 517.806 -3.71301 517.869C-4.42981 517.796 -5.14644 517.984 -5.72809 518.4C-6.29957 518.713 -6.74259 519.214 -6.9822 519.817C-7.0982 520.032 -7.10158 520.292 -7.10057 520.614C-7.1004 520.668 -7.09996 520.726 -7.09949 520.788C-7.09693 521.124 -7.09349 521.577 -7.12749 522.219L-7.12789 522.226L-7.12783 522.234L-6.74936 573.984L-6.74263 574.904L-6.28286 574.108L18.7774 530.702ZM0.374072 578.347L-0.0834967 579.14L0.713463 578.69L46.1941 553.02L46.2072 553.013L46.2193 553.004C46.8154 552.566 47.2946 551.99 47.6168 551.327C48.0185 550.815 48.2278 550.178 48.2092 549.525L48.2083 549.494L48.2002 549.465C48.1587 549.315 48.1542 549.199 48.1493 549.073C48.1475 549.027 48.1457 548.98 48.1421 548.93C48.1358 548.844 48.1222 548.738 48.0733 548.635C48.036 548.557 47.9831 548.49 47.9143 548.434L47.8074 548.049L47.7939 548L47.7625 547.961C47.2226 547.279 46.527 546.735 45.7348 546.373L25.9924 534.975L26.039 534.894L25.8225 534.769L25.606 534.644L25.4344 534.942L25.3094 535.158L0.374072 578.347Z" fill="white" fill-opacity="0.15" stroke="white" stroke-width="0.5"/>
<path d="M104.715 -29.7563L104.722 -29.7519L104.729 -29.748L152.232 -2.32215L152.236 -2.3199C154.008 -1.34017 155.51 0.061354 156.604 1.75577L156.609 1.76481L156.616 1.77332C157.868 3.38883 158.513 5.37943 158.439 7.39607C158.418 7.44656 158.403 7.49993 158.396 7.55471C158.387 7.63253 158.393 7.71145 158.414 7.7869C158.434 7.86235 158.47 7.93289 158.518 7.9946C158.534 8.01568 158.552 8.03561 158.571 8.05427C158.612 10.1558 158.078 12.2207 157.025 14.0298L157.025 14.0297L157.02 14.0385C156.021 15.9267 154.452 17.4536 152.528 18.4096L152.527 18.4093L152.516 18.4155L93.3825 51.6625L93.3824 51.6624L93.3755 51.6666C92.7616 52.0383 92.0487 52.2244 91.3231 52.2014C90.5973 52.1785 89.8903 51.9475 89.2879 51.5362L89.288 51.536L89.2778 51.5297C88.6627 51.1515 88.1445 50.6358 87.7656 50.0249C87.3885 49.4171 87.1602 48.7323 87.0985 48.0263L86.9295 -19.4488L86.9294 -19.4604L86.9283 -19.4719C86.7327 -21.5304 87.1057 -23.5938 88.0067 -25.4408L88.0069 -25.4407L88.0109 -25.4499C88.9054 -27.4865 90.4342 -29.1791 92.3771 -30.283L92.3866 -30.2884L92.3957 -30.2947C93.3356 -30.9439 94.4066 -31.3872 95.5387 -31.5953C96.6708 -31.8035 97.8384 -31.7717 98.9652 -31.5018L98.9934 -31.4951L99.0223 -31.495C101.043 -31.4853 103.025 -30.8802 104.715 -29.7563ZM120.92 -11.175L121.045 -11.3915L120.829 -11.5165L100.859 -23.0458L100.845 -23.054C100.252 -23.3964 99.7885 -23.664 99.4141 -23.8288C99.0573 -23.986 98.7365 -24.0713 98.4296 -24.0079C97.7128 -24.0806 96.9961 -23.8923 96.4145 -23.4765C95.843 -23.1635 95.4 -22.6633 95.1604 -22.0596C95.0444 -21.845 95.041 -21.5845 95.042 -21.2633C95.0422 -21.2087 95.0426 -21.1507 95.0431 -21.0887C95.0456 -20.7524 95.0491 -20.3001 95.0151 -19.6579L95.0147 -19.6504L95.0147 -19.6429L95.3932 32.1076L95.3999 33.0271L95.8597 32.2307L120.92 -11.175ZM102.517 36.4705L102.059 37.2631L102.856 36.8132L148.337 11.1432L148.35 11.1358L148.362 11.1269C148.958 10.6888 149.437 10.1137 149.759 9.44987C150.161 8.93779 150.37 8.30131 150.352 7.64805L150.351 7.61765L150.343 7.58834C150.301 7.43857 150.297 7.32196 150.292 7.19613C150.29 7.1505 150.288 7.10366 150.285 7.05358C150.278 6.96694 150.265 6.86105 150.216 6.75847C150.179 6.68029 150.126 6.61351 150.057 6.55758L149.95 6.17239L149.936 6.12361L149.905 6.08394C149.365 5.40265 148.67 4.8582 147.877 4.49657L128.135 -6.90171L128.182 -6.9825L127.965 -7.1075L127.749 -7.2325L127.577 -6.9352L127.452 -6.7187L102.517 36.4705Z" fill="white" fill-opacity="0.15" stroke="white" stroke-width="0.5"/>
<path d="M104.715 78.6191L104.722 78.6234L104.729 78.6274L152.232 106.053L152.236 106.055C154.008 107.035 155.51 108.437 156.604 110.131L156.609 110.14L156.616 110.149C157.868 111.764 158.513 113.755 158.439 115.771C158.418 115.822 158.403 115.875 158.396 115.93C158.387 116.008 158.393 116.087 158.414 116.162C158.434 116.238 158.47 116.308 158.518 116.37C158.534 116.391 158.552 116.411 158.571 116.43C158.612 118.531 158.078 120.596 157.025 122.405L157.025 122.405L157.02 122.414C156.021 124.302 154.452 125.829 152.528 126.785L152.527 126.785L152.516 126.791L93.3825 160.038L93.3824 160.038L93.3755 160.042C92.7616 160.414 92.0487 160.6 91.3231 160.577C90.5973 160.554 89.8903 160.323 89.2879 159.912L89.288 159.911L89.2778 159.905C88.6627 159.527 88.1445 159.011 87.7656 158.4C87.3885 157.792 87.1602 157.108 87.0985 156.402L86.9295 88.9265L86.9294 88.915L86.9283 88.9035C86.7327 86.845 87.1057 84.7816 88.0067 82.9346L88.0069 82.9347L88.0109 82.9255C88.9054 80.8888 90.4342 79.1963 92.3771 78.0924L92.3866 78.087L92.3957 78.0807C93.3356 77.4315 94.4066 76.9882 95.5387 76.78C96.6708 76.5719 97.8384 76.6037 98.9652 76.8735L98.9934 76.8803L99.0223 76.8804C101.043 76.89 103.025 77.4951 104.715 78.6191ZM120.92 97.2004L121.045 96.9839L120.829 96.8589L100.859 85.3296L100.845 85.3214C100.252 84.9789 99.7885 84.7114 99.4141 84.5465C99.0573 84.3894 98.7365 84.3041 98.4296 84.3675C97.7128 84.2948 96.9961 84.483 96.4145 84.8989C95.843 85.2118 95.4 85.7121 95.1604 86.3158C95.0444 86.5304 95.041 86.7909 95.042 87.1121C95.0422 87.1666 95.0426 87.2247 95.0431 87.2867C95.0456 87.623 95.0491 88.0753 95.0151 88.7175L95.0147 88.725L95.0147 88.7325L95.3932 140.483L95.3999 141.402L95.8597 140.606L120.92 97.2004ZM102.517 144.846L102.059 145.638L102.856 145.189L148.337 119.519L148.35 119.511L148.362 119.502C148.958 119.064 149.437 118.489 149.759 117.825C150.161 117.313 150.37 116.677 150.352 116.023L150.351 115.993L150.343 115.964C150.301 115.814 150.297 115.697 150.292 115.571C150.29 115.526 150.288 115.479 150.285 115.429C150.278 115.342 150.265 115.236 150.216 115.134C150.179 115.056 150.126 114.989 150.057 114.933L149.95 114.548L149.936 114.499L149.905 114.459C149.365 113.778 148.67 113.234 147.877 112.872L128.135 101.474L128.182 101.393L127.965 101.268L127.749 101.143L127.577 101.44L127.452 101.657L102.517 144.846Z" fill="white" fill-opacity="0.15" stroke="white" stroke-width="0.5"/>
<path d="M104.715 186.994L104.722 186.999L104.729 187.003L152.232 214.429L152.236 214.431C154.008 215.411 155.51 216.812 156.604 218.506L156.609 218.516L156.616 218.524C157.868 220.14 158.513 222.13 158.439 224.147C158.418 224.197 158.403 224.251 158.396 224.305C158.387 224.383 158.393 224.462 158.414 224.538C158.434 224.613 158.47 224.684 158.518 224.745C158.534 224.766 158.552 224.786 158.571 224.805C158.612 226.906 158.078 228.971 157.025 230.781L157.025 230.78L157.02 230.789C156.021 232.677 154.452 234.204 152.528 235.16L152.527 235.16L152.516 235.166L93.3825 268.413L93.3824 268.413L93.3755 268.417C92.7616 268.789 92.0487 268.975 91.3231 268.952C90.5973 268.929 89.8903 268.698 89.2879 268.287L89.288 268.287L89.2778 268.28C88.6627 267.902 88.1445 267.386 87.7656 266.776C87.3885 266.168 87.1602 265.483 87.0985 264.777L86.9295 197.302L86.9294 197.29L86.9283 197.279C86.7327 195.22 87.1057 193.157 88.0067 191.31L88.0069 191.31L88.0109 191.301C88.9054 189.264 90.4342 187.572 92.3771 186.468L92.3866 186.462L92.3957 186.456C93.3356 185.807 94.4066 185.364 95.5387 185.155C96.6708 184.947 97.8384 184.979 98.9652 185.249L98.9934 185.256L99.0223 185.256C101.043 185.265 103.025 185.87 104.715 186.994ZM120.92 205.576L121.045 205.359L120.829 205.234L100.859 193.705L100.845 193.697C100.252 193.354 99.7885 193.087 99.4141 192.922C99.0573 192.765 98.7365 192.679 98.4296 192.743C97.7128 192.67 96.9961 192.858 96.4145 193.274C95.843 193.587 95.4 194.087 95.1604 194.691C95.0444 194.906 95.041 195.166 95.042 195.487C95.0422 195.542 95.0426 195.6 95.0431 195.662C95.0456 195.998 95.0491 196.451 95.0151 197.093L95.0147 197.1L95.0147 197.108L95.3932 248.858L95.3999 249.778L95.8597 248.981L120.92 205.576ZM102.517 253.221L102.059 254.014L102.856 253.564L148.337 227.894L148.35 227.887L148.362 227.878C148.958 227.44 149.437 226.864 149.759 226.201C150.161 225.689 150.37 225.052 150.352 224.399L150.351 224.368L150.343 224.339C150.301 224.189 150.297 224.073 150.292 223.947C150.29 223.901 150.288 223.854 150.285 223.804C150.278 223.718 150.265 223.612 150.216 223.509C150.179 223.431 150.126 223.364 150.057 223.308L149.95 222.923L149.936 222.874L149.905 222.835C149.365 222.153 148.67 221.609 147.877 221.247L128.135 209.849L128.182 209.768L127.965 209.643L127.749 209.518L127.577 209.816L127.452 210.032L102.517 253.221Z" fill="white" fill-opacity="0.15" stroke="white" stroke-width="0.5"/>
<path d="M104.715 295.37L104.722 295.374L104.729 295.378L152.232 322.804L152.236 322.806C154.008 323.786 155.51 325.187 156.604 326.882L156.609 326.891L156.616 326.899C157.868 328.515 158.513 330.506 158.439 332.522C158.418 332.573 158.403 332.626 158.396 332.681C158.387 332.759 158.393 332.838 158.414 332.913C158.434 332.988 158.47 333.059 158.518 333.121C158.534 333.142 158.552 333.162 158.571 333.18C158.612 335.282 158.078 337.347 157.025 339.156L157.025 339.156L157.02 339.165C156.021 341.053 154.452 342.58 152.528 343.536L152.527 343.535L152.516 343.542L93.3825 376.789L93.3824 376.788L93.3755 376.793C92.7616 377.164 92.0487 377.35 91.3231 377.328C90.5973 377.305 89.8903 377.074 89.2879 376.662L89.288 376.662L89.2778 376.656C88.6627 376.278 88.1445 375.762 87.7656 375.151C87.3885 374.543 87.1602 373.858 87.0985 373.152L86.9295 305.677L86.9294 305.666L86.9283 305.654C86.7327 303.596 87.1057 301.532 88.0067 299.685L88.0069 299.685L88.0109 299.676C88.9054 297.64 90.4342 295.947 92.3771 294.843L92.3866 294.838L92.3957 294.831C93.3356 294.182 94.4066 293.739 95.5387 293.531C96.6708 293.323 97.8384 293.354 98.9652 293.624L98.9934 293.631L99.0223 293.631C101.043 293.641 103.025 294.246 104.715 295.37ZM120.92 313.951L121.045 313.735L120.829 313.61L100.859 302.08L100.845 302.072C100.252 301.73 99.7885 301.462 99.4141 301.297C99.0573 301.14 98.7365 301.055 98.4296 301.118C97.7128 301.046 96.9961 301.234 96.4145 301.65C95.843 301.963 95.4 302.463 95.1604 303.066C95.0444 303.281 95.041 303.542 95.042 303.863C95.0422 303.917 95.0426 303.975 95.0431 304.037C95.0456 304.374 95.0491 304.826 95.0151 305.468L95.0147 305.476L95.0147 305.483L95.3932 357.234L95.3999 358.153L95.8597 357.357L120.92 313.951ZM102.517 361.597L102.059 362.389L102.856 361.939L148.337 336.269L148.35 336.262L148.362 336.253C148.958 335.815 149.437 335.24 149.759 334.576C150.161 334.064 150.37 333.427 150.352 332.774L150.351 332.744L150.343 332.714C150.301 332.565 150.297 332.448 150.292 332.322C150.29 332.277 150.288 332.23 150.285 332.18C150.278 332.093 150.265 331.987 150.216 331.885C150.179 331.806 150.126 331.74 150.057 331.684L149.95 331.298L149.936 331.25L149.905 331.21C149.365 330.529 148.67 329.984 147.877 329.623L128.135 318.224L128.182 318.144L127.965 318.019L127.749 317.894L127.577 318.191L127.452 318.407L102.517 361.597Z" fill="white" fill-opacity="0.15" stroke="white" stroke-width="0.5"/>
<path d="M104.715 403.745L104.722 403.75L104.729 403.753L152.232 431.179L152.236 431.182C154.008 432.161 155.51 433.563 156.604 435.257L156.609 435.266L156.616 435.275C157.868 436.89 158.513 438.881 158.439 440.898C158.418 440.948 158.403 441.001 158.396 441.056C158.387 441.134 158.393 441.213 158.414 441.288C158.434 441.364 158.47 441.434 158.518 441.496C158.534 441.517 158.552 441.537 158.571 441.556C158.612 443.657 158.078 445.722 157.025 447.531L157.025 447.531L157.02 447.54C156.021 449.428 154.452 450.955 152.528 451.911L152.527 451.911L152.516 451.917L93.3825 485.164L93.3824 485.164L93.3755 485.168C92.7616 485.54 92.0487 485.726 91.3231 485.703C90.5973 485.68 89.8903 485.449 89.2879 485.038L89.288 485.037L89.2778 485.031C88.6627 484.653 88.1445 484.137 87.7656 483.526C87.3885 482.919 87.1602 482.234 87.0985 481.528L86.9295 414.053L86.9294 414.041L86.9283 414.03C86.7327 411.971 87.1057 409.908 88.0067 408.061L88.0069 408.061L88.0109 408.052C88.9054 406.015 90.4342 404.322 92.3771 403.218L92.3866 403.213L92.3957 403.207C93.3356 402.558 94.4066 402.114 95.5387 401.906C96.6708 401.698 97.8384 401.73 98.9652 402L98.9934 402.006L99.0223 402.006C101.043 402.016 103.025 402.621 104.715 403.745ZM120.92 422.326L121.045 422.11L120.829 421.985L100.859 410.456L100.845 410.447C100.252 410.105 99.7885 409.837 99.4141 409.673C99.0573 409.515 98.7365 409.43 98.4296 409.494C97.7128 409.421 96.9961 409.609 96.4145 410.025C95.843 410.338 95.4 410.838 95.1604 411.442C95.0444 411.656 95.041 411.917 95.042 412.238C95.0422 412.293 95.0426 412.351 95.0431 412.413C95.0456 412.749 95.0491 413.201 95.0151 413.844L95.0147 413.851L95.0147 413.859L95.3932 465.609L95.3999 466.529L95.8597 465.732L120.92 422.326ZM102.517 469.972L102.059 470.764L102.856 470.315L148.337 444.645L148.35 444.637L148.362 444.628C148.958 444.19 149.437 443.615 149.759 442.951C150.161 442.439 150.37 441.803 150.352 441.15L150.351 441.119L150.343 441.09C150.301 440.94 150.297 440.823 150.292 440.698C150.29 440.652 150.288 440.605 150.285 440.555C150.278 440.468 150.265 440.363 150.216 440.26C150.179 440.182 150.126 440.115 150.057 440.059L149.95 439.674L149.936 439.625L149.905 439.585C149.365 438.904 148.67 438.36 147.877 437.998L128.135 426.6L128.182 426.519L127.965 426.394L127.749 426.269L127.577 426.566L127.452 426.783L102.517 469.972Z" fill="white" fill-opacity="0.15" stroke="white" stroke-width="0.5"/>
<path d="M104.715 512.121L104.722 512.125L104.729 512.129L152.232 539.555L152.236 539.557C154.008 540.537 155.51 541.938 156.604 543.633L156.609 543.642L156.616 543.65C157.868 545.266 158.513 547.256 158.439 549.273C158.418 549.323 158.403 549.377 158.396 549.432C158.387 549.509 158.393 549.588 158.414 549.664C158.434 549.739 158.47 549.81 158.518 549.871C158.534 549.892 158.552 549.912 158.571 549.931C158.612 552.033 158.078 554.097 157.025 555.907L157.025 555.907L157.02 555.915C156.021 557.804 154.452 559.33 152.528 560.286L152.527 560.286L152.516 560.292L93.3825 593.539L93.3824 593.539L93.3755 593.543C92.7616 593.915 92.0487 594.101 91.3231 594.078C90.5973 594.055 89.8903 593.824 89.2879 593.413L89.288 593.413L89.2778 593.407C88.6627 593.028 88.1445 592.513 87.7656 591.902C87.3885 591.294 87.1602 590.609 87.0985 589.903L86.9295 522.428L86.9294 522.416L86.9283 522.405C86.7327 520.346 87.1057 518.283 88.0067 516.436L88.0069 516.436L88.0109 516.427C88.9054 514.39 90.4342 512.698 92.3771 511.594L92.3866 511.588L92.3957 511.582C93.3356 510.933 94.4066 510.49 95.5387 510.281C96.6708 510.073 97.8384 510.105 98.9652 510.375L98.9934 510.382L99.0223 510.382C101.043 510.391 103.025 510.997 104.715 512.121ZM120.92 530.702L121.045 530.485L120.829 530.36L100.859 518.831L100.845 518.823C100.252 518.48 99.7885 518.213 99.4141 518.048C99.0573 517.891 98.7365 517.806 98.4296 517.869C97.7128 517.796 96.9961 517.984 96.4145 518.4C95.843 518.713 95.4 519.214 95.1604 519.817C95.0444 520.032 95.041 520.292 95.042 520.614C95.0422 520.668 95.0426 520.726 95.0431 520.788C95.0456 521.124 95.0491 521.577 95.0151 522.219L95.0147 522.226L95.0147 522.234L95.3932 573.984L95.3999 574.904L95.8597 574.108L120.92 530.702ZM102.517 578.347L102.059 579.14L102.856 578.69L148.337 553.02L148.35 553.013L148.362 553.004C148.958 552.566 149.437 551.99 149.759 551.327C150.161 550.815 150.37 550.178 150.352 549.525L150.351 549.494L150.343 549.465C150.301 549.315 150.297 549.199 150.292 549.073C150.29 549.027 150.288 548.98 150.285 548.93C150.278 548.844 150.265 548.738 150.216 548.635C150.179 548.557 150.126 548.49 150.057 548.434L149.95 548.049L149.936 548L149.905 547.961C149.365 547.279 148.67 546.735 147.877 546.373L128.135 534.975L128.182 534.894L127.965 534.769L127.749 534.644L127.577 534.942L127.452 535.158L102.517 578.347Z" fill="white" fill-opacity="0.15" stroke="white" stroke-width="0.5"/>
<path d="M206.858 -29.7563L206.864 -29.7519L206.871 -29.748L254.374 -2.32215L254.378 -2.3199C256.15 -1.34017 257.652 0.061354 258.746 1.75577L258.752 1.76481L258.759 1.77332C260.011 3.38883 260.655 5.37943 260.582 7.39607C260.56 7.44656 260.546 7.49993 260.539 7.55471C260.529 7.63253 260.535 7.71145 260.556 7.7869C260.577 7.86235 260.613 7.93289 260.661 7.9946C260.677 8.01568 260.695 8.03561 260.714 8.05427C260.754 10.1558 260.22 12.2207 259.168 14.0298L259.168 14.0297L259.163 14.0385C258.163 15.9267 256.594 17.4536 254.67 18.4096L254.67 18.4093L254.659 18.4155L195.525 51.6625L195.525 51.6624L195.518 51.6666C194.904 52.0383 194.191 52.2244 193.466 52.2014C192.74 52.1785 192.033 51.9475 191.43 51.5362L191.431 51.536L191.42 51.5297C190.805 51.1515 190.287 50.6358 189.908 50.0249C189.531 49.4171 189.303 48.7323 189.241 48.0263L189.072 -19.4488L189.072 -19.4604L189.071 -19.4719C188.875 -21.5304 189.248 -23.5938 190.149 -25.4408L190.149 -25.4407L190.154 -25.4499C191.048 -27.4865 192.577 -29.1791 194.52 -30.283L194.529 -30.2884L194.538 -30.2947C195.478 -30.9439 196.549 -31.3872 197.681 -31.5953C198.813 -31.8035 199.981 -31.7717 201.108 -31.5018L201.136 -31.4951L201.165 -31.495C203.186 -31.4853 205.167 -30.8802 206.858 -29.7563ZM223.063 -11.175L223.188 -11.3915L222.971 -11.5165L203.002 -23.0458L202.988 -23.054C202.394 -23.3964 201.931 -23.664 201.557 -23.8288C201.2 -23.986 200.879 -24.0713 200.572 -24.0079C199.855 -24.0806 199.139 -23.8923 198.557 -23.4765C197.986 -23.1635 197.543 -22.6633 197.303 -22.0596C197.187 -21.845 197.184 -21.5845 197.185 -21.2633C197.185 -21.2087 197.185 -21.1507 197.186 -21.0887C197.188 -20.7524 197.192 -20.3001 197.158 -19.6579L197.157 -19.6504L197.157 -19.6429L197.536 32.1076L197.543 33.0271L198.002 32.2307L223.063 -11.175ZM204.659 36.4705L204.202 37.2631L204.999 36.8132L250.479 11.1432L250.492 11.1358L250.504 11.1269C251.101 10.6888 251.58 10.1137 251.902 9.44987C252.304 8.93779 252.513 8.30131 252.494 7.64805L252.493 7.61765L252.485 7.58834C252.444 7.43857 252.439 7.32196 252.434 7.19613C252.433 7.1505 252.431 7.10366 252.427 7.05358C252.421 6.96694 252.407 6.86105 252.358 6.75847C252.321 6.68029 252.268 6.61351 252.199 6.55758L252.093 6.17239L252.079 6.12361L252.048 6.08394C251.508 5.40265 250.812 4.8582 250.02 4.49657L230.278 -6.90171L230.324 -6.9825L230.108 -7.1075L229.891 -7.2325L229.72 -6.9352L229.595 -6.7187L204.659 36.4705Z" fill="white" fill-opacity="0.15" stroke="white" stroke-width="0.5"/>
<path d="M206.858 78.6191L206.864 78.6234L206.871 78.6274L254.374 106.053L254.378 106.055C256.15 107.035 257.652 108.437 258.746 110.131L258.752 110.14L258.759 110.149C260.011 111.764 260.655 113.755 260.582 115.771C260.56 115.822 260.546 115.875 260.539 115.93C260.529 116.008 260.535 116.087 260.556 116.162C260.577 116.238 260.613 116.308 260.661 116.37C260.677 116.391 260.695 116.411 260.714 116.43C260.754 118.531 260.22 120.596 259.168 122.405L259.168 122.405L259.163 122.414C258.163 124.302 256.594 125.829 254.67 126.785L254.67 126.785L254.659 126.791L195.525 160.038L195.525 160.038L195.518 160.042C194.904 160.414 194.191 160.6 193.466 160.577C192.74 160.554 192.033 160.323 191.43 159.912L191.431 159.911L191.42 159.905C190.805 159.527 190.287 159.011 189.908 158.4C189.531 157.792 189.303 157.108 189.241 156.402L189.072 88.9265L189.072 88.915L189.071 88.9035C188.875 86.845 189.248 84.7816 190.149 82.9346L190.149 82.9347L190.154 82.9255C191.048 80.8888 192.577 79.1963 194.52 78.0924L194.529 78.087L194.538 78.0807C195.478 77.4315 196.549 76.9882 197.681 76.78C198.813 76.5719 199.981 76.6037 201.108 76.8735L201.136 76.8803L201.165 76.8804C203.186 76.89 205.167 77.4951 206.858 78.6191ZM223.063 97.2004L223.188 96.9839L222.971 96.8589L203.002 85.3296L202.988 85.3214C202.394 84.9789 201.931 84.7114 201.557 84.5465C201.2 84.3894 200.879 84.3041 200.572 84.3675C199.855 84.2948 199.139 84.483 198.557 84.8989C197.986 85.2118 197.543 85.7121 197.303 86.3158C197.187 86.5304 197.184 86.7909 197.185 87.1121C197.185 87.1666 197.185 87.2247 197.186 87.2867C197.188 87.623 197.192 88.0753 197.158 88.7175L197.157 88.725L197.157 88.7325L197.536 140.483L197.543 141.402L198.002 140.606L223.063 97.2004ZM204.659 144.846L204.202 145.638L204.999 145.189L250.479 119.519L250.492 119.511L250.504 119.502C251.101 119.064 251.58 118.489 251.902 117.825C252.304 117.313 252.513 116.677 252.494 116.023L252.493 115.993L252.485 115.964C252.444 115.814 252.439 115.697 252.434 115.571C252.433 115.526 252.431 115.479 252.427 115.429C252.421 115.342 252.407 115.236 252.358 115.134C252.321 115.056 252.268 114.989 252.199 114.933L252.093 114.548L252.079 114.499L252.048 114.459C251.508 113.778 250.812 113.234 250.02 112.872L230.278 101.474L230.324 101.393L230.108 101.268L229.891 101.143L229.72 101.44L229.595 101.657L204.659 144.846Z" fill="white" fill-opacity="0.15" stroke="white" stroke-width="0.5"/>
<path d="M206.858 186.994L206.864 186.999L206.871 187.003L254.374 214.429L254.378 214.431C256.15 215.411 257.652 216.812 258.746 218.506L258.752 218.516L258.759 218.524C260.011 220.14 260.655 222.13 260.582 224.147C260.56 224.197 260.546 224.251 260.539 224.305C260.529 224.383 260.535 224.462 260.556 224.538C260.577 224.613 260.613 224.684 260.661 224.745C260.677 224.766 260.695 224.786 260.714 224.805C260.754 226.906 260.22 228.971 259.168 230.781L259.168 230.78L259.163 230.789C258.163 232.677 256.594 234.204 254.67 235.16L254.67 235.16L254.659 235.166L195.525 268.413L195.525 268.413L195.518 268.417C194.904 268.789 194.191 268.975 193.466 268.952C192.74 268.929 192.033 268.698 191.43 268.287L191.431 268.287L191.42 268.28C190.805 267.902 190.287 267.386 189.908 266.776C189.531 266.168 189.303 265.483 189.241 264.777L189.072 197.302L189.072 197.29L189.071 197.279C188.875 195.22 189.248 193.157 190.149 191.31L190.149 191.31L190.154 191.301C191.048 189.264 192.577 187.572 194.52 186.468L194.529 186.462L194.538 186.456C195.478 185.807 196.549 185.364 197.681 185.155C198.813 184.947 199.981 184.979 201.108 185.249L201.136 185.256L201.165 185.256C203.186 185.265 205.167 185.87 206.858 186.994ZM223.063 205.576L223.188 205.359L222.971 205.234L203.002 193.705L202.988 193.697C202.394 193.354 201.931 193.087 201.557 192.922C201.2 192.765 200.879 192.679 200.572 192.743C199.855 192.67 199.139 192.858 198.557 193.274C197.986 193.587 197.543 194.087 197.303 194.691C197.187 194.906 197.184 195.166 197.185 195.487C197.185 195.542 197.185 195.6 197.186 195.662C197.188 195.998 197.192 196.451 197.158 197.093L197.157 197.1L197.157 197.108L197.536 248.858L197.543 249.778L198.002 248.981L223.063 205.576ZM204.659 253.221L204.202 254.014L204.999 253.564L250.479 227.894L250.492 227.887L250.504 227.878C251.101 227.44 251.58 226.864 251.902 226.201C252.304 225.689 252.513 225.052 252.494 224.399L252.493 224.368L252.485 224.339C252.444 224.189 252.439 224.073 252.434 223.947C252.433 223.901 252.431 223.854 252.427 223.804C252.421 223.718 252.407 223.612 252.358 223.509C252.321 223.431 252.268 223.364 252.199 223.308L252.093 222.923L252.079 222.874L252.048 222.835C251.508 222.153 250.812 221.609 250.02 221.247L230.278 209.849L230.324 209.768L230.108 209.643L229.891 209.518L229.72 209.816L229.595 210.032L204.659 253.221Z" fill="white" fill-opacity="0.15" stroke="white" stroke-width="0.5"/>
<path d="M206.858 295.37L206.864 295.374L206.871 295.378L254.374 322.804L254.378 322.806C256.15 323.786 257.652 325.187 258.746 326.882L258.752 326.891L258.759 326.899C260.011 328.515 260.655 330.506 260.582 332.522C260.56 332.573 260.546 332.626 260.539 332.681C260.529 332.759 260.535 332.838 260.556 332.913C260.577 332.988 260.613 333.059 260.661 333.121C260.677 333.142 260.695 333.162 260.714 333.18C260.754 335.282 260.22 337.347 259.168 339.156L259.168 339.156L259.163 339.165C258.163 341.053 256.594 342.58 254.67 343.536L254.67 343.535L254.659 343.542L195.525 376.789L195.525 376.788L195.518 376.793C194.904 377.164 194.191 377.35 193.466 377.328C192.74 377.305 192.033 377.074 191.43 376.662L191.431 376.662L191.42 376.656C190.805 376.278 190.287 375.762 189.908 375.151C189.531 374.543 189.303 373.858 189.241 373.152L189.072 305.677L189.072 305.666L189.071 305.654C188.875 303.596 189.248 301.532 190.149 299.685L190.149 299.685L190.154 299.676C191.048 297.64 192.577 295.947 194.52 294.843L194.529 294.838L194.538 294.831C195.478 294.182 196.549 293.739 197.681 293.531C198.813 293.323 199.981 293.354 201.108 293.624L201.136 293.631L201.165 293.631C203.186 293.641 205.167 294.246 206.858 295.37ZM223.063 313.951L223.188 313.735L222.971 313.61L203.002 302.08L202.988 302.072C202.394 301.73 201.931 301.462 201.557 301.297C201.2 301.14 200.879 301.055 200.572 301.118C199.855 301.046 199.139 301.234 198.557 301.65C197.986 301.963 197.543 302.463 197.303 303.066C197.187 303.281 197.184 303.542 197.185 303.863C197.185 303.917 197.185 303.975 197.186 304.037C197.188 304.374 197.192 304.826 197.158 305.468L197.157 305.476L197.157 305.483L197.536 357.234L197.543 358.153L198.002 357.357L223.063 313.951ZM204.659 361.597L204.202 362.389L204.999 361.939L250.479 336.269L250.492 336.262L250.504 336.253C251.101 335.815 251.58 335.24 251.902 334.576C252.304 334.064 252.513 333.427 252.494 332.774L252.493 332.744L252.485 332.714C252.444 332.565 252.439 332.448 252.434 332.322C252.433 332.277 252.431 332.23 252.427 332.18C252.421 332.093 252.407 331.987 252.358 331.885C252.321 331.806 252.268 331.74 252.199 331.684L252.093 331.298L252.079 331.25L252.048 331.21C251.508 330.529 250.812 329.984 250.02 329.623L230.278 318.224L230.324 318.144L230.108 318.019L229.891 317.894L229.72 318.191L229.595 318.407L204.659 361.597Z" fill="white" fill-opacity="0.15" stroke="white" stroke-width="0.5"/>
<path d="M206.858 403.745L206.864 403.75L206.871 403.753L254.374 431.179L254.378 431.182C256.15 432.161 257.652 433.563 258.746 435.257L258.752 435.266L258.759 435.275C260.011 436.89 260.655 438.881 260.582 440.898C260.56 440.948 260.546 441.001 260.539 441.056C260.529 441.134 260.535 441.213 260.556 441.288C260.577 441.364 260.613 441.434 260.661 441.496C260.677 441.517 260.695 441.537 260.714 441.556C260.754 443.657 260.22 445.722 259.168 447.531L259.168 447.531L259.163 447.54C258.163 449.428 256.594 450.955 254.67 451.911L254.67 451.911L254.659 451.917L195.525 485.164L195.525 485.164L195.518 485.168C194.904 485.54 194.191 485.726 193.466 485.703C192.74 485.68 192.033 485.449 191.43 485.038L191.431 485.037L191.42 485.031C190.805 484.653 190.287 484.137 189.908 483.526C189.531 482.919 189.303 482.234 189.241 481.528L189.072 414.053L189.072 414.041L189.071 414.03C188.875 411.971 189.248 409.908 190.149 408.061L190.149 408.061L190.154 408.052C191.048 406.015 192.577 404.322 194.52 403.218L194.529 403.213L194.538 403.207C195.478 402.558 196.549 402.114 197.681 401.906C198.813 401.698 199.981 401.73 201.108 402L201.136 402.006L201.165 402.006C203.186 402.016 205.167 402.621 206.858 403.745ZM223.063 422.326L223.188 422.11L222.971 421.985L203.002 410.456L202.988 410.447C202.394 410.105 201.931 409.837 201.557 409.673C201.2 409.515 200.879 409.43 200.572 409.494C199.855 409.421 199.139 409.609 198.557 410.025C197.986 410.338 197.543 410.838 197.303 411.442C197.187 411.656 197.184 411.917 197.185 412.238C197.185 412.293 197.185 412.351 197.186 412.413C197.188 412.749 197.192 413.201 197.158 413.844L197.157 413.851L197.157 413.859L197.536 465.609L197.543 466.529L198.002 465.732L223.063 422.326ZM204.659 469.972L204.202 470.764L204.999 470.315L250.479 444.645L250.492 444.637L250.504 444.628C251.101 444.19 251.58 443.615 251.902 442.951C252.304 442.439 252.513 441.803 252.494 441.15L252.493 441.119L252.485 441.09C252.444 440.94 252.439 440.823 252.434 440.698C252.433 440.652 252.431 440.605 252.427 440.555C252.421 440.468 252.407 440.363 252.358 440.26C252.321 440.182 252.268 440.115 252.199 440.059L252.093 439.674L252.079 439.625L252.048 439.585C251.508 438.904 250.812 438.36 250.02 437.998L230.278 426.6L230.324 426.519L230.108 426.394L229.891 426.269L229.72 426.566L229.595 426.783L204.659 469.972Z" fill="white" fill-opacity="0.15" stroke="white" stroke-width="0.5"/>
<path d="M206.858 512.121L206.864 512.125L206.871 512.129L254.374 539.555L254.378 539.557C256.15 540.537 257.652 541.938 258.746 543.633L258.752 543.642L258.759 543.65C260.011 545.266 260.655 547.256 260.582 549.273C260.56 549.323 260.546 549.377 260.539 549.432C260.529 549.509 260.535 549.588 260.556 549.664C260.577 549.739 260.613 549.81 260.661 549.871C260.677 549.892 260.695 549.912 260.714 549.931C260.754 552.033 260.22 554.097 259.168 555.907L259.168 555.907L259.163 555.915C258.163 557.804 256.594 559.33 254.67 560.286L254.67 560.286L254.659 560.292L195.525 593.539L195.525 593.539L195.518 593.543C194.904 593.915 194.191 594.101 193.466 594.078C192.74 594.055 192.033 593.824 191.43 593.413L191.431 593.413L191.42 593.407C190.805 593.028 190.287 592.513 189.908 591.902C189.531 591.294 189.303 590.609 189.241 589.903L189.072 522.428L189.072 522.416L189.071 522.405C188.875 520.346 189.248 518.283 190.149 516.436L190.149 516.436L190.154 516.427C191.048 514.39 192.577 512.698 194.52 511.594L194.529 511.588L194.538 511.582C195.478 510.933 196.549 510.49 197.681 510.281C198.813 510.073 199.981 510.105 201.108 510.375L201.136 510.382L201.165 510.382C203.186 510.391 205.167 510.997 206.858 512.121ZM223.063 530.702L223.188 530.485L222.971 530.36L203.002 518.831L202.988 518.823C202.394 518.48 201.931 518.213 201.557 518.048C201.2 517.891 200.879 517.806 200.572 517.869C199.855 517.796 199.139 517.984 198.557 518.4C197.986 518.713 197.543 519.214 197.303 519.817C197.187 520.032 197.184 520.292 197.185 520.614C197.185 520.668 197.185 520.726 197.186 520.788C197.188 521.124 197.192 521.577 197.158 522.219L197.157 522.226L197.157 522.234L197.536 573.984L197.543 574.904L198.002 574.108L223.063 530.702ZM204.659 578.347L204.202 579.14L204.999 578.69L250.479 553.02L250.492 553.013L250.504 553.004C251.101 552.566 251.58 551.99 251.902 551.327C252.304 550.815 252.513 550.178 252.494 549.525L252.493 549.494L252.485 549.465C252.444 549.315 252.439 549.199 252.434 549.073C252.433 549.027 252.431 548.98 252.427 548.93C252.421 548.844 252.407 548.738 252.358 548.635C252.321 548.557 252.268 548.49 252.199 548.434L252.093 548.049L252.079 548L252.048 547.961C251.508 547.279 250.812 546.735 250.02 546.373L230.278 534.975L230.324 534.894L230.108 534.769L229.891 534.644L229.72 534.942L229.595 535.158L204.659 578.347Z" fill="white" fill-opacity="0.15" stroke="white" stroke-width="0.5"/>
<path d="M309 -29.7563L309.007 -29.7519L309.014 -29.748L356.517 -2.32215L356.521 -2.3199C358.293 -1.34017 359.795 0.061354 360.889 1.75577L360.895 1.76481L360.901 1.77332C362.153 3.38883 362.798 5.37943 362.725 7.39607C362.703 7.44656 362.688 7.49993 362.682 7.55471C362.672 7.63253 362.678 7.71145 362.699 7.7869C362.72 7.86235 362.755 7.93289 362.803 7.9946C362.819 8.01568 362.837 8.03561 362.856 8.05427C362.897 10.1558 362.363 12.2207 361.31 14.0298L361.31 14.0297L361.305 14.0385C360.306 15.9267 358.737 17.4536 356.813 18.4096L356.813 18.4093L356.801 18.4155L297.668 51.6625L297.668 51.6624L297.661 51.6666C297.047 52.0383 296.334 52.2244 295.608 52.2014C294.883 52.1785 294.175 51.9475 293.573 51.5362L293.573 51.536L293.563 51.5297C292.948 51.1515 292.43 50.6358 292.051 50.0249C291.674 49.4171 291.445 48.7323 291.384 48.0263L291.215 -19.4488L291.215 -19.4604L291.213 -19.4719C291.018 -21.5304 291.391 -23.5938 292.292 -25.4408L292.292 -25.4407L292.296 -25.4499C293.191 -27.4865 294.719 -29.1791 296.662 -30.283L296.672 -30.2884L296.681 -30.2947C297.621 -30.9439 298.692 -31.3872 299.824 -31.5953C300.956 -31.8035 302.124 -31.7717 303.25 -31.5018L303.279 -31.4951L303.307 -31.495C305.328 -31.4853 307.31 -30.8802 309 -29.7563ZM325.205 -11.175L325.33 -11.3915L325.114 -11.5165L305.144 -23.0458L305.13 -23.054C304.537 -23.3964 304.074 -23.664 303.699 -23.8288C303.342 -23.986 303.022 -24.0713 302.715 -24.0079C301.998 -24.0806 301.281 -23.8923 300.7 -23.4765C300.128 -23.1635 299.685 -22.6633 299.446 -22.0596C299.33 -21.845 299.326 -21.5845 299.327 -21.2633C299.327 -21.2087 299.328 -21.1507 299.328 -21.0887C299.331 -20.7524 299.334 -20.3001 299.3 -19.6579L299.3 -19.6504L299.3 -19.6429L299.678 32.1076L299.685 33.0271L300.145 32.2307L325.205 -11.175ZM306.802 36.4705L306.344 37.2631L307.141 36.8132L352.622 11.1432L352.635 11.1358L352.647 11.1269C353.243 10.6888 353.722 10.1137 354.045 9.44987C354.446 8.93779 354.656 8.30131 354.637 7.64805L354.636 7.61765L354.628 7.58834C354.586 7.43857 354.582 7.32196 354.577 7.19613C354.575 7.1505 354.573 7.10366 354.57 7.05358C354.564 6.96694 354.55 6.86105 354.501 6.75847C354.464 6.68029 354.411 6.61351 354.342 6.55758L354.235 6.17239L354.222 6.12361L354.19 6.08394C353.65 5.40265 352.955 4.8582 352.163 4.49657L332.42 -6.90171L332.467 -6.9825L332.25 -7.1075L332.034 -7.2325L331.862 -6.9352L331.737 -6.7187L306.802 36.4705Z" fill="white" fill-opacity="0.15" stroke="white" stroke-width="0.5"/>
<path d="M309 78.6191L309.007 78.6234L309.014 78.6274L356.517 106.053L356.521 106.055C358.293 107.035 359.795 108.437 360.889 110.131L360.895 110.14L360.901 110.149C362.153 111.764 362.798 113.755 362.725 115.771C362.703 115.822 362.688 115.875 362.682 115.93C362.672 116.008 362.678 116.087 362.699 116.162C362.72 116.238 362.755 116.308 362.803 116.37C362.819 116.391 362.837 116.411 362.856 116.43C362.897 118.531 362.363 120.596 361.31 122.405L361.31 122.405L361.305 122.414C360.306 124.302 358.737 125.829 356.813 126.785L356.813 126.785L356.801 126.791L297.668 160.038L297.668 160.038L297.661 160.042C297.047 160.414 296.334 160.6 295.608 160.577C294.883 160.554 294.175 160.323 293.573 159.912L293.573 159.911L293.563 159.905C292.948 159.527 292.43 159.011 292.051 158.4C291.674 157.792 291.445 157.108 291.384 156.402L291.215 88.9265L291.215 88.915L291.213 88.9035C291.018 86.845 291.391 84.7816 292.292 82.9346L292.292 82.9347L292.296 82.9255C293.191 80.8888 294.719 79.1963 296.662 78.0924L296.672 78.087L296.681 78.0807C297.621 77.4315 298.692 76.9882 299.824 76.78C300.956 76.5719 302.124 76.6037 303.25 76.8735L303.279 76.8803L303.307 76.8804C305.328 76.89 307.31 77.4951 309 78.6191ZM325.205 97.2004L325.33 96.9839L325.114 96.8589L305.144 85.3296L305.13 85.3214C304.537 84.9789 304.074 84.7114 303.699 84.5465C303.342 84.3894 303.022 84.3041 302.715 84.3675C301.998 84.2948 301.281 84.483 300.7 84.8989C300.128 85.2118 299.685 85.7121 299.446 86.3158C299.33 86.5304 299.326 86.7909 299.327 87.1121C299.327 87.1666 299.328 87.2247 299.328 87.2867C299.331 87.623 299.334 88.0753 299.3 88.7175L299.3 88.725L299.3 88.7325L299.678 140.483L299.685 141.402L300.145 140.606L325.205 97.2004ZM306.802 144.846L306.344 145.638L307.141 145.189L352.622 119.519L352.635 119.511L352.647 119.502C353.243 119.064 353.722 118.489 354.045 117.825C354.446 117.313 354.656 116.677 354.637 116.023L354.636 115.993L354.628 115.964C354.586 115.814 354.582 115.697 354.577 115.571C354.575 115.526 354.573 115.479 354.57 115.429C354.564 115.342 354.55 115.236 354.501 115.134C354.464 115.056 354.411 114.989 354.342 114.933L354.235 114.548L354.222 114.499L354.19 114.459C353.65 113.778 352.955 113.234 352.163 112.872L332.42 101.474L332.467 101.393L332.25 101.268L332.034 101.143L331.862 101.44L331.737 101.657L306.802 144.846Z" fill="white" fill-opacity="0.15" stroke="white" stroke-width="0.5"/>
<path d="M309 186.994L309.007 186.999L309.014 187.003L356.517 214.429L356.521 214.431C358.293 215.411 359.795 216.812 360.889 218.506L360.895 218.516L360.901 218.524C362.153 220.14 362.798 222.13 362.725 224.147C362.703 224.197 362.688 224.251 362.682 224.305C362.672 224.383 362.678 224.462 362.699 224.538C362.72 224.613 362.755 224.684 362.803 224.745C362.819 224.766 362.837 224.786 362.856 224.805C362.897 226.906 362.363 228.971 361.31 230.781L361.31 230.78L361.305 230.789C360.306 232.677 358.737 234.204 356.813 235.16L356.813 235.16L356.801 235.166L297.668 268.413L297.668 268.413L297.661 268.417C297.047 268.789 296.334 268.975 295.608 268.952C294.883 268.929 294.175 268.698 293.573 268.287L293.573 268.287L293.563 268.28C292.948 267.902 292.43 267.386 292.051 266.776C291.674 266.168 291.445 265.483 291.384 264.777L291.215 197.302L291.215 197.29L291.213 197.279C291.018 195.22 291.391 193.157 292.292 191.31L292.292 191.31L292.296 191.301C293.191 189.264 294.719 187.572 296.662 186.468L296.672 186.462L296.681 186.456C297.621 185.807 298.692 185.364 299.824 185.155C300.956 184.947 302.124 184.979 303.25 185.249L303.279 185.256L303.307 185.256C305.328 185.265 307.31 185.87 309 186.994ZM325.205 205.576L325.33 205.359L325.114 205.234L305.144 193.705L305.13 193.697C304.537 193.354 304.074 193.087 303.699 192.922C303.342 192.765 303.022 192.679 302.715 192.743C301.998 192.67 301.281 192.858 300.7 193.274C300.128 193.587 299.685 194.087 299.446 194.691C299.33 194.906 299.326 195.166 299.327 195.487C299.327 195.542 299.328 195.6 299.328 195.662C299.331 195.998 299.334 196.451 299.3 197.093L299.3 197.1L299.3 197.108L299.678 248.858L299.685 249.778L300.145 248.981L325.205 205.576ZM306.802 253.221L306.344 254.014L307.141 253.564L352.622 227.894L352.635 227.887L352.647 227.878C353.243 227.44 353.722 226.864 354.045 226.201C354.446 225.689 354.656 225.052 354.637 224.399L354.636 224.368L354.628 224.339C354.586 224.189 354.582 224.073 354.577 223.947C354.575 223.901 354.573 223.854 354.57 223.804C354.564 223.718 354.55 223.612 354.501 223.509C354.464 223.431 354.411 223.364 354.342 223.308L354.235 222.923L354.222 222.874L354.19 222.835C353.65 222.153 352.955 221.609 352.163 221.247L332.42 209.849L332.467 209.768L332.25 209.643L332.034 209.518L331.862 209.816L331.737 210.032L306.802 253.221Z" fill="white" fill-opacity="0.15" stroke="white" stroke-width="0.5"/>
<path d="M309 295.37L309.007 295.374L309.014 295.378L356.517 322.804L356.521 322.806C358.293 323.786 359.795 325.187 360.889 326.882L360.895 326.891L360.901 326.899C362.153 328.515 362.798 330.506 362.725 332.522C362.703 332.573 362.688 332.626 362.682 332.681C362.672 332.759 362.678 332.838 362.699 332.913C362.72 332.988 362.755 333.059 362.803 333.121C362.819 333.142 362.837 333.162 362.856 333.18C362.897 335.282 362.363 337.347 361.31 339.156L361.31 339.156L361.305 339.165C360.306 341.053 358.737 342.58 356.813 343.536L356.813 343.535L356.801 343.542L297.668 376.789L297.668 376.788L297.661 376.793C297.047 377.164 296.334 377.35 295.608 377.328C294.883 377.305 294.175 377.074 293.573 376.662L293.573 376.662L293.563 376.656C292.948 376.278 292.43 375.762 292.051 375.151C291.674 374.543 291.445 373.858 291.384 373.152L291.215 305.677L291.215 305.666L291.213 305.654C291.018 303.596 291.391 301.532 292.292 299.685L292.292 299.685L292.296 299.676C293.191 297.64 294.719 295.947 296.662 294.843L296.672 294.838L296.681 294.831C297.621 294.182 298.692 293.739 299.824 293.531C300.956 293.323 302.124 293.354 303.25 293.624L303.279 293.631L303.307 293.631C305.328 293.641 307.31 294.246 309 295.37ZM325.205 313.951L325.33 313.735L325.114 313.61L305.144 302.08L305.13 302.072C304.537 301.73 304.074 301.462 303.699 301.297C303.342 301.14 303.022 301.055 302.715 301.118C301.998 301.046 301.281 301.234 300.7 301.65C300.128 301.963 299.685 302.463 299.446 303.066C299.33 303.281 299.326 303.542 299.327 303.863C299.327 303.917 299.328 303.975 299.328 304.037C299.331 304.374 299.334 304.826 299.3 305.468L299.3 305.476L299.3 305.483L299.678 357.234L299.685 358.153L300.145 357.357L325.205 313.951ZM306.802 361.597L306.344 362.389L307.141 361.939L352.622 336.269L352.635 336.262L352.647 336.253C353.243 335.815 353.722 335.24 354.045 334.576C354.446 334.064 354.656 333.427 354.637 332.774L354.636 332.744L354.628 332.714C354.586 332.565 354.582 332.448 354.577 332.322C354.575 332.277 354.573 332.23 354.57 332.18C354.564 332.093 354.55 331.987 354.501 331.885C354.464 331.806 354.411 331.74 354.342 331.684L354.235 331.298L354.222 331.25L354.19 331.21C353.65 330.529 352.955 329.984 352.163 329.623L332.42 318.224L332.467 318.144L332.25 318.019L332.034 317.894L331.862 318.191L331.737 318.407L306.802 361.597Z" fill="white" fill-opacity="0.15" stroke="white" stroke-width="0.5"/>
<path d="M309 403.745L309.007 403.75L309.014 403.753L356.517 431.179L356.521 431.182C358.293 432.161 359.795 433.563 360.889 435.257L360.895 435.266L360.901 435.275C362.153 436.89 362.798 438.881 362.725 440.898C362.703 440.948 362.688 441.001 362.682 441.056C362.672 441.134 362.678 441.213 362.699 441.288C362.72 441.364 362.755 441.434 362.803 441.496C362.819 441.517 362.837 441.537 362.856 441.556C362.897 443.657 362.363 445.722 361.31 447.531L361.31 447.531L361.305 447.54C360.306 449.428 358.737 450.955 356.813 451.911L356.813 451.911L356.801 451.917L297.668 485.164L297.668 485.164L297.661 485.168C297.047 485.54 296.334 485.726 295.608 485.703C294.883 485.68 294.175 485.449 293.573 485.038L293.573 485.037L293.563 485.031C292.948 484.653 292.43 484.137 292.051 483.526C291.674 482.919 291.445 482.234 291.384 481.528L291.215 414.053L291.215 414.041L291.213 414.03C291.018 411.971 291.391 409.908 292.292 408.061L292.292 408.061L292.296 408.052C293.191 406.015 294.719 404.322 296.662 403.218L296.672 403.213L296.681 403.207C297.621 402.558 298.692 402.114 299.824 401.906C300.956 401.698 302.124 401.73 303.25 402L303.279 402.006L303.307 402.006C305.328 402.016 307.31 402.621 309 403.745ZM325.205 422.326L325.33 422.11L325.114 421.985L305.144 410.456L305.13 410.447C304.537 410.105 304.074 409.837 303.699 409.673C303.342 409.515 303.022 409.43 302.715 409.494C301.998 409.421 301.281 409.609 300.7 410.025C300.128 410.338 299.685 410.838 299.446 411.442C299.33 411.656 299.326 411.917 299.327 412.238C299.327 412.293 299.328 412.351 299.328 412.413C299.331 412.749 299.334 413.201 299.3 413.844L299.3 413.851L299.3 413.859L299.678 465.609L299.685 466.529L300.145 465.732L325.205 422.326ZM306.802 469.972L306.344 470.764L307.141 470.315L352.622 444.645L352.635 444.637L352.647 444.628C353.243 444.19 353.722 443.615 354.045 442.951C354.446 442.439 354.656 441.803 354.637 441.15L354.636 441.119L354.628 441.09C354.586 440.94 354.582 440.823 354.577 440.698C354.575 440.652 354.573 440.605 354.57 440.555C354.564 440.468 354.55 440.363 354.501 440.26C354.464 440.182 354.411 440.115 354.342 440.059L354.235 439.674L354.222 439.625L354.19 439.585C353.65 438.904 352.955 438.36 352.163 437.998L332.42 426.6L332.467 426.519L332.25 426.394L332.034 426.269L331.862 426.566L331.737 426.783L306.802 469.972Z" fill="white" fill-opacity="0.15" stroke="white" stroke-width="0.5"/>
<path d="M309 512.121L309.007 512.125L309.014 512.129L356.517 539.555L356.521 539.557C358.293 540.537 359.795 541.938 360.889 543.633L360.895 543.642L360.901 543.65C362.153 545.266 362.798 547.256 362.725 549.273C362.703 549.323 362.688 549.377 362.682 549.432C362.672 549.509 362.678 549.588 362.699 549.664C362.72 549.739 362.755 549.81 362.803 549.871C362.819 549.892 362.837 549.912 362.856 549.931C362.897 552.033 362.363 554.097 361.31 555.907L361.31 555.907L361.305 555.915C360.306 557.804 358.737 559.33 356.813 560.286L356.813 560.286L356.801 560.292L297.668 593.539L297.668 593.539L297.661 593.543C297.047 593.915 296.334 594.101 295.608 594.078C294.883 594.055 294.175 593.824 293.573 593.413L293.573 593.413L293.563 593.407C292.948 593.028 292.43 592.513 292.051 591.902C291.674 591.294 291.445 590.609 291.384 589.903L291.215 522.428L291.215 522.416L291.213 522.405C291.018 520.346 291.391 518.283 292.292 516.436L292.292 516.436L292.296 516.427C293.191 514.39 294.719 512.698 296.662 511.594L296.672 511.588L296.681 511.582C297.621 510.933 298.692 510.49 299.824 510.281C300.956 510.073 302.124 510.105 303.25 510.375L303.279 510.382L303.307 510.382C305.328 510.391 307.31 510.997 309 512.121ZM325.205 530.702L325.33 530.485L325.114 530.36L305.144 518.831L305.13 518.823C304.537 518.48 304.074 518.213 303.699 518.048C303.342 517.891 303.022 517.806 302.715 517.869C301.998 517.796 301.281 517.984 300.7 518.4C300.128 518.713 299.685 519.214 299.446 519.817C299.33 520.032 299.326 520.292 299.327 520.614C299.327 520.668 299.328 520.726 299.328 520.788C299.331 521.124 299.334 521.577 299.3 522.219L299.3 522.226L299.3 522.234L299.678 573.984L299.685 574.904L300.145 574.108L325.205 530.702ZM306.802 578.347L306.344 579.14L307.141 578.69L352.622 553.02L352.635 553.013L352.647 553.004C353.243 552.566 353.722 551.99 354.045 551.327C354.446 550.815 354.656 550.178 354.637 549.525L354.636 549.494L354.628 549.465C354.586 549.315 354.582 549.199 354.577 549.073C354.575 549.027 354.573 548.98 354.57 548.93C354.564 548.844 354.55 548.738 354.501 548.635C354.464 548.557 354.411 548.49 354.342 548.434L354.235 548.049L354.222 548L354.19 547.961C353.65 547.279 352.955 546.735 352.163 546.373L332.42 534.975L332.467 534.894L332.25 534.769L332.034 534.644L331.862 534.942L331.737 535.158L306.802 578.347Z" fill="white" fill-opacity="0.15" stroke="white" stroke-width="0.5"/>
</g>
</svg>
