<svg width="21" height="22" viewBox="0 0 21 22" fill="none" xmlns="http://www.w3.org/2000/svg">
<path d="M8.40073 18.3304H12.6007C16.1007 18.3304 17.5007 16.9304 17.5007 13.4304V9.23044C17.5007 5.73044 16.1007 4.33044 12.6007 4.33044H8.40073C4.90073 4.33044 3.50073 5.73044 3.50073 9.23044V13.4304C3.50073 16.9304 4.90073 18.3304 8.40073 18.3304Z" stroke="white" stroke-width="1.2" stroke-linecap="round" stroke-linejoin="round"/>
<path d="M9.18823 15.7054H11.8132C14.0007 15.7054 14.8757 14.8304 14.8757 12.6429V10.0179C14.8757 7.83044 14.0007 6.95544 11.8132 6.95544H9.18823C7.00073 6.95544 6.12573 7.83044 6.12573 10.0179V12.6429C6.12573 14.8304 7.00073 15.7054 9.18823 15.7054Z" stroke="white" stroke-width="1.2" stroke-linecap="round" stroke-linejoin="round"/>
<path d="M7.00948 4.33044V2.58044" stroke="white" stroke-width="1.2" stroke-linecap="round" stroke-linejoin="round"/>
<path d="M10.5007 4.33044V2.58044" stroke="white" stroke-width="1.2" stroke-linecap="round" stroke-linejoin="round"/>
<path d="M14.0007 4.33044V2.58044" stroke="white" stroke-width="1.2" stroke-linecap="round" stroke-linejoin="round"/>
<path d="M17.5007 7.83044H19.2507" stroke="white" stroke-width="1.2" stroke-linecap="round" stroke-linejoin="round"/>
<path d="M17.5007 11.3304H19.2507" stroke="white" stroke-width="1.2" stroke-linecap="round" stroke-linejoin="round"/>
<path d="M17.5007 14.8304H19.2507" stroke="white" stroke-width="1.2" stroke-linecap="round" stroke-linejoin="round"/>
<path d="M14.0007 18.3304V20.0804" stroke="white" stroke-width="1.2" stroke-linecap="round" stroke-linejoin="round"/>
<path d="M10.5095 18.3304V20.0804" stroke="white" stroke-width="1.2" stroke-linecap="round" stroke-linejoin="round"/>
<path d="M7.00948 18.3304V20.0804" stroke="white" stroke-width="1.2" stroke-linecap="round" stroke-linejoin="round"/>
<path d="M1.75073 7.83044H3.50073" stroke="white" stroke-width="1.2" stroke-linecap="round" stroke-linejoin="round"/>
<path d="M1.75073 11.3304H3.50073" stroke="white" stroke-width="1.2" stroke-linecap="round" stroke-linejoin="round"/>
<path d="M1.75073 14.8304H3.50073" stroke="white" stroke-width="1.2" stroke-linecap="round" stroke-linejoin="round"/>
<path d="M10.5007 9.31793L9.67823 10.7529C9.49448 11.0679 9.64323 11.3304 10.0107 11.3304H10.9907C11.3582 11.3304 11.507 11.5929 11.3232 11.9079L10.5007 13.3429" stroke="white" stroke-width="1.2" stroke-linecap="round" stroke-linejoin="round"/>
</svg>
