<svg width="22" height="22" viewBox="0 0 22 22" fill="none" xmlns="http://www.w3.org/2000/svg">
<path d="M7.88407 11.1788H9.40657V14.7226C9.40657 15.2476 10.0541 15.4926 10.4041 15.0988L14.1316 10.8638C14.4553 10.4963 14.1928 9.91883 13.7028 9.91883H12.1803V6.37508C12.1803 5.85008 11.5328 5.60508 11.1828 5.99883L7.45532 10.2338C7.13157 10.6013 7.39407 11.1788 7.88407 11.1788Z" stroke="white" stroke-width="1.2" stroke-miterlimit="10" stroke-linecap="round" stroke-linejoin="round"/>
<path d="M10.7628 19.2988C15.5953 19.2988 19.5128 15.3813 19.5128 10.5488C19.5128 5.71634 15.5953 1.79883 10.7628 1.79883C5.93033 1.79883 2.01282 5.71634 2.01282 10.5488C2.01282 15.3813 5.93033 19.2988 10.7628 19.2988Z" stroke="white" stroke-width="1.2" stroke-miterlimit="10" stroke-linecap="round" stroke-linejoin="round"/>
</svg>
