<svg width="22" height="22" viewBox="0 0 22 22" fill="none" xmlns="http://www.w3.org/2000/svg">
<path d="M8.49289 11.5288L5.82414 14.1976" stroke="white" stroke-width="1.3" stroke-miterlimit="10" stroke-linecap="round" stroke-linejoin="round"/>
<path d="M5.85039 11.5551L8.51914 14.2238" stroke="white" stroke-width="1.3" stroke-miterlimit="10" stroke-linecap="round" stroke-linejoin="round"/>
<path d="M11.9579 12.8763H11.9666" stroke="white" stroke-width="1.3" stroke-miterlimit="10" stroke-linecap="round" stroke-linejoin="round"/>
<path d="M15.4054 12.8763H15.4141" stroke="white" stroke-width="1.3" stroke-miterlimit="10" stroke-linecap="round" stroke-linejoin="round"/>
<path d="M13.6816 14.6097V14.5913" stroke="white" stroke-width="1.3" stroke-miterlimit="10" stroke-linecap="round" stroke-linejoin="round"/>
<path d="M13.6816 11.1622V11.1438" stroke="white" stroke-width="1.3" stroke-miterlimit="10" stroke-linecap="round" stroke-linejoin="round"/>
<path d="M7.99414 19.8763H13.2441C17.6191 19.8763 19.3691 18.1263 19.3691 13.7513V12.0013C19.3691 7.62634 17.6191 5.87634 13.2441 5.87634H7.99414C3.61914 5.87634 1.86914 7.62634 1.86914 12.0013V13.7513C1.86914 18.1263 3.61914 19.8763 7.99414 19.8763Z" stroke="white" stroke-width="1.3" stroke-linecap="round" stroke-linejoin="round"/>
<path d="M11.5029 2.37634L11.4941 3.26009C11.4854 3.74134 11.1004 4.12634 10.6191 4.12634H10.5929C10.1116 4.12634 9.72664 4.52009 9.72664 5.00134C9.72664 5.48259 10.1204 5.87634 10.6016 5.87634H11.4766" stroke="white" stroke-width="1.3" stroke-linecap="round" stroke-linejoin="round"/>
</svg>
