<svg width="29" height="29" viewBox="0 0 29 29" fill="none" xmlns="http://www.w3.org/2000/svg">
<g clip-path="url(#clip0_32_437)">
<path d="M14.7374 28.6662C22.4694 28.6662 28.7374 22.3982 28.7374 14.6662C28.7374 6.93421 22.4694 0.666199 14.7374 0.666199C7.00544 0.666199 0.737427 6.93421 0.737427 14.6662C0.737427 22.3982 7.00544 28.6662 14.7374 28.6662Z" fill="#0088CC"/>
<path fill-rule="evenodd" clip-rule="evenodd" d="M10.8374 9.9162H18.6874C18.983 9.91062 19.2753 9.97939 19.5374 10.1162C19.8183 10.233 20.0486 10.4456 20.1874 10.7162C20.1874 10.7228 20.1887 10.7293 20.1912 10.7353C20.1938 10.7414 20.1974 10.7469 20.2021 10.7516C20.2067 10.7562 20.2122 10.7599 20.2183 10.7624C20.2244 10.7649 20.2309 10.7662 20.2374 10.7662C20.402 11.0375 20.4885 11.3489 20.4874 11.6662C20.499 11.9848 20.4116 12.2992 20.2374 12.5662L15.2874 21.0662C15.2346 21.164 15.1545 21.2444 15.0569 21.2977C14.9593 21.3509 14.8483 21.3747 14.7374 21.3662C14.6286 21.3631 14.522 21.3344 14.4264 21.2822C14.3308 21.2301 14.2489 21.1561 14.1874 21.0662L9.33743 12.5662C9.1621 12.3154 9.05839 12.0215 9.03743 11.7162C9.00171 11.3863 9.07175 11.0537 9.23743 10.7662C9.30966 10.6112 9.4138 10.4731 9.54304 10.3611C9.67228 10.2491 9.82371 10.1657 9.98743 10.1162C10.2447 9.96671 10.5405 9.89709 10.8374 9.9162ZM14.1374 11.1162H10.8374C10.6374 11.1162 10.5374 11.1162 10.4874 11.1662C10.3981 11.2055 10.3267 11.2769 10.2874 11.3662C10.2421 11.4411 10.2244 11.5296 10.2374 11.6162C10.2374 11.6662 10.2874 11.7162 10.3874 11.9162L14.1374 18.4162V11.1162ZM15.3374 11.1162V18.4662L19.1374 11.9162C19.1782 11.8217 19.1953 11.7188 19.1874 11.6162C19.2005 11.5296 19.1828 11.4411 19.1374 11.3662C19.0874 11.3162 19.0874 11.2662 19.0374 11.2662L18.9874 11.2162C18.8765 11.1715 18.7564 11.1543 18.6374 11.1662H15.3374V11.1162Z" fill="#FFFEF0"/>
</g>
<defs>
<clipPath id="clip0_32_437">
<rect width="28" height="28" fill="white" transform="translate(0.737427 0.666199)"/>
</clipPath>
</defs>
</svg>
