<svg width="29" height="29" viewBox="0 0 29 29" fill="none" xmlns="http://www.w3.org/2000/svg">
<g clip-path="url(#clip0_32_166)">
<path d="M27.3477 14.677C27.3477 21.8567 21.5274 27.677 14.3477 27.677C7.16795 27.677 1.34766 21.8567 1.34766 14.677C1.34766 7.4973 7.16795 1.677 14.3477 1.677C21.5274 1.677 27.3477 7.4973 27.3477 14.677Z" stroke="url(#paint0_linear_32_166)" stroke-width="2"/>
<path fill-rule="evenodd" clip-rule="evenodd" d="M9.54858 8.61306H19.2005C19.5639 8.6062 19.9233 8.69076 20.2456 8.85897C20.5909 9.00254 20.8741 9.26395 21.0448 9.59669C21.0448 9.60477 21.0464 9.61276 21.0495 9.62022C21.0526 9.62768 21.0571 9.63446 21.0628 9.64016C21.0685 9.64587 21.0753 9.6504 21.0827 9.65349C21.0902 9.65658 21.0982 9.65817 21.1063 9.65817C21.3085 9.99174 21.4149 10.3746 21.4137 10.7648C21.4278 11.1565 21.3204 11.543 21.1063 11.8713L15.02 22.3224C14.9551 22.4427 14.8566 22.5416 14.7366 22.6071C14.6165 22.6725 14.4801 22.7018 14.3438 22.6913C14.21 22.6875 14.0789 22.6522 13.9614 22.588C13.8439 22.5239 13.7432 22.4329 13.6675 22.3224L7.70427 11.8713C7.48869 11.5629 7.36117 11.2016 7.33541 10.8262C7.29148 10.4207 7.3776 10.0116 7.58131 9.65817C7.67012 9.46756 7.79816 9.29784 7.95707 9.16012C8.11598 9.0224 8.30217 8.91978 8.50347 8.85897C8.81974 8.67517 9.18353 8.58957 9.54858 8.61306ZM13.6061 10.0885H9.54858C9.30267 10.0885 9.17972 10.0885 9.11824 10.15C9.00839 10.1983 8.92064 10.286 8.87233 10.3959C8.81657 10.488 8.79482 10.5968 8.81085 10.7033C8.81085 10.7648 8.87233 10.8262 8.99529 11.0721L13.6061 19.0642V10.0885ZM15.0815 10.0885V19.1256L19.7538 11.0721C19.8038 10.956 19.8249 10.8294 19.8152 10.7033C19.8313 10.5968 19.8095 10.488 19.7538 10.3959C19.6923 10.3344 19.6923 10.2729 19.6308 10.2729L19.5693 10.2115C19.433 10.1565 19.2853 10.1354 19.139 10.15H15.0815V10.0885Z" fill="url(#paint1_linear_32_166)"/>
</g>
<defs>
<linearGradient id="paint0_linear_32_166" x1="6.82278" y1="1.43301" x2="23.9384" y2="31.175" gradientUnits="userSpaceOnUse">
<stop stop-color="#16CDA7"/>
<stop offset="1" stop-color="#5140EA"/>
</linearGradient>
<linearGradient id="paint1_linear_32_166" x1="23.8945" y1="8.60925" x2="7.32422" y2="27.0853" gradientUnits="userSpaceOnUse">
<stop stop-color="#19C4AB"/>
<stop offset="1" stop-color="#4758DE"/>
</linearGradient>
<clipPath id="clip0_32_166">
<rect width="28" height="28" fill="white" transform="translate(0.347656 0.677002)"/>
</clipPath>
</defs>
</svg>
