<svg width="19" height="19" viewBox="0 0 19 19" fill="none" xmlns="http://www.w3.org/2000/svg">
<path fill-rule="evenodd" clip-rule="evenodd" d="M6.93548 1.4658C4.00488 1.4658 1.63535 3.83532 1.63535 6.76593C1.63535 9.44988 3.62853 11.6658 6.21957 12.0107C6.23083 12.012 6.2421 12.0136 6.25336 12.0155C6.46408 12.0506 6.69023 12.066 6.93595 12.066C7.01248 12.066 7.08863 12.0644 7.16436 12.0612C7.20176 12.0596 7.23905 12.0577 7.27624 12.0553C10.0476 11.8801 12.2356 9.58206 12.2356 6.76593C12.2356 6.52022 12.2202 6.29407 12.1851 6.08334C12.1838 6.07554 12.1826 6.06771 12.1816 6.05987C11.841 3.46403 9.62284 1.4658 6.93548 1.4658ZM0.267578 6.76593C0.267578 9.97245 2.52854 12.6479 5.54865 13.2825C6.18352 16.3023 8.8588 18.563 12.0651 18.563C15.7511 18.563 18.733 15.5811 18.733 11.8951C18.733 8.68854 16.472 6.01311 13.4519 5.37847C12.8171 2.35868 10.1418 0.0980225 6.93548 0.0980225C3.24948 0.0980225 0.267578 3.07992 0.267578 6.76593ZM12.0651 17.1952C9.67313 17.1952 7.65285 15.6121 6.99748 13.4336C7.07741 13.4328 7.157 13.4307 7.23623 13.4272C7.30291 13.4242 7.36933 13.4203 7.43548 13.4154C7.70697 13.3954 7.9739 13.3591 8.23532 13.3076L9.0161 14.0884C9.28318 14.3554 9.71619 14.3554 9.98327 14.0884C10.2503 13.8213 10.2503 13.3883 9.98327 13.1212L9.6993 12.8372C10.2268 12.5971 10.7174 12.2903 11.1603 11.9275L11.9782 12.7329C12.2473 12.9979 12.6803 12.9946 12.9453 12.7255C13.2104 12.4564 13.207 12.0234 12.9379 11.7584L12.1244 10.9573C12.4754 10.5231 12.7729 10.0439 13.0071 9.52968L13.2915 9.81408C13.5586 10.0812 13.9916 10.0812 14.2587 9.81408C14.5257 9.547 14.5257 9.11399 14.2587 8.84691L13.4775 8.06579C13.5566 7.66482 13.5998 7.25088 13.6036 6.82743C15.7821 7.48279 17.3652 9.50308 17.3652 11.8951C17.3652 14.8257 14.9957 17.1952 12.0651 17.1952Z" fill="white"/>
</svg>
